<svg xmlns="http://www.w3.org/2000/svg" width="1920" height="1517.614" viewBox="0 0 1920 1517.614"><defs><style>.a{fill:#9371be;}.b,.c{stroke:none;}.c{fill:#707070;}</style></defs><g class="a" transform="translate(0 73.614)"><path class="b" d="M 1919.5 1443.5 L 0.5 1443.5 L 0.5 0.5942062139511108 L 327.2992858886719 57.29001235961914 L 327.394287109375 57.30644226074219 L 327.4885864257812 57.28644180297852 L 942.2180786132812 -73.10533142089844 L 1559.197631835938 31.38430023193359 L 1559.260498046875 31.394775390625 L 1559.323852539062 31.3892993927002 L 1919.5 0.544577956199646 L 1919.5 1443.5 Z"/><path class="c" d="M 942.2293090820312 -72.596435546875 L 327.5921630859375 57.7757568359375 L 327.40380859375 57.815673828125 L 327.2138671875 57.7825927734375 L 1 1.1883544921875 L 1 1443 L 1919 1443 L 1919 1.08935546875 L 1559.366455078125 31.887451171875 L 1559.23974609375 31.8980712890625 L 1559.1142578125 31.876953125 L 942.2293090820312 -72.596435546875 M 942.2080688476562 -73.6142578125 L 1559.28125 30.8909912109375 L 1920 0 L 1920 1444 L 0 1444 L 0 0 L 327.384765625 56.79736328125 L 942.2080688476562 -73.6142578125 Z"/></g></svg>