<svg xmlns="http://www.w3.org/2000/svg" width="80" height="80" viewBox="0 0 80 80">
  <path id="iconmonstr-discord-4" d="M40,0A40,40,0,1,0,80,40,40,40,0,0,0,40,0ZM50.827,61.16,49.59,56.843l2.987,2.777L55.4,62.233l5.017,4.433V24.807A4.8,4.8,0,0,0,55.633,20H24.367a4.8,4.8,0,0,0-4.783,4.807V56.353a4.8,4.8,0,0,0,4.783,4.807h26.46Zm-4.2-10.687-1.54-1.89a7.363,7.363,0,0,0,4.223-2.777,13.352,13.352,0,0,1-2.683,1.377,15.357,15.357,0,0,1-3.383,1,16.345,16.345,0,0,1-6.043-.023,19.587,19.587,0,0,1-3.43-1,13.674,13.674,0,0,1-1.7-.793l-.093-.053-.023-.01-.093-.053-.093-.07-.653-.4a7.257,7.257,0,0,0,4.083,2.753L33.63,50.473c-5.157-.163-7.117-3.547-7.117-3.547a31.247,31.247,0,0,1,3.36-13.6,11.538,11.538,0,0,1,6.557-2.45l.233.28a15.741,15.741,0,0,0-6.137,3.057l1.377-.677a17.522,17.522,0,0,1,5.3-1.47l.4-.047a19.743,19.743,0,0,1,4.713-.047,19.02,19.02,0,0,1,7.023,2.24,15.529,15.529,0,0,0-5.81-2.963l.327-.373a11.538,11.538,0,0,1,6.557,2.45,31.247,31.247,0,0,1,3.36,13.6S51.857,50.183,46.627,50.473Zm-2.333-10.9a2.6,2.6,0,1,0,2.38,2.59A2.486,2.486,0,0,0,44.293,39.577Zm-8.517,0a2.6,2.6,0,1,0,2.38,2.59A2.486,2.486,0,0,0,35.777,39.577Z" fill="#fff" fill-rule="evenodd"/>
</svg>
