<svg xmlns="http://www.w3.org/2000/svg" width="608.461" height="412" viewBox="0 0 608.461 412"><defs><style>.a{fill:#d35b39;}.b{fill:#2b173f;stroke:#f6b03a;stroke-miterlimit:10;stroke-width:10px;}.c{fill:#fff;font-size:105px;font-family:Gotham-BoldItalic, Gotham;font-weight:700;font-style:italic;}</style></defs><g transform="translate(-41 -182.5)"><path class="a" d="M630.494,463.508C468.882,429.866,410.833,229.994,410.833,229.994V190.416h-3.958V182.5H397.64v7.916h-1.319v11.874h-1.979v1.319H391.7v2.639H348.167v-2.639h-2.639v-1.319h-1.319V189.756H341.57V182.5h-9.235v7.256h-3.3v39.579C281.543,386.33,176,439.761,176,439.761l30.344-.66q13.1-9.717,24.407-19.486V439.1H241.3V410.229a376.527,376.527,0,0,0,36.28-38.312v72.462h10.554V358.361c30.271-41,38.259-71.637,38.259-71.637l-4.617,176.784h21.768V414.035h1.319v-1.319h1.319v-5.277h1.979v-1.319h2.639v-2.639h1.319v-5.937h36.28v5.277h1.319v2.639H391.7v1.319h1.319v5.937h1.319v1.319h1.319v49.473h23.088l-5.277-175.465a277.2,277.2,0,0,0,38.919,71.941V468.126h9.895V372.583a341.03,341.03,0,0,0,37.6,38.583v58.279h9.895v-49.9a377.082,377.082,0,0,0,38.919,27.9v22h8.575V452.624c12.533,7.322,20.449,10.878,20.449,10.878ZM343.549,233.952h3.3v-5.277h1.319v-2.639h2.639v-1.319h1.319v-6.6h35.621v6.6h1.319v1.319H391.7v2.639h1.319v5.277H395v46.175H343.549Zm52.112,143.143H344.209l-.33-.33V318.716h2.639v-6.6h1.319V310.8h2.639v-2.639h1.319v-5.937h35.621V307.5h1.319v2.639h2.639v1.319h1.319v6.6h2.968Z" transform="translate(-44.246)"/><path class="b" d="M640.622,595.716H279.8l4.993-23.318a3.636,3.636,0,0,0-3.833-3.4H75.334a3.636,3.636,0,0,0-3.833,3.4L46,690.935a3.636,3.636,0,0,0,3.833,3.4h143.69l-5.534,23.318a3.636,3.636,0,0,0,3.833,3.4H612.482a3.636,3.636,0,0,0,3.833-3.4l28.147-118.538A3.642,3.642,0,0,0,640.622,595.716Z" transform="translate(0 -131.548)"/><text class="c" transform="translate(91.605 536.562)"><tspan x="0" y="0">SF</tspan></text><text class="c" transform="translate(225.957 564.148)"><tspan x="0" y="0">HACKS</tspan></text></g></svg>