<svg xmlns="http://www.w3.org/2000/svg" width="296.365" height="214.819" viewBox="0 0 296.365 214.819"><defs><style>.a{fill:#f2f2f2;}.b{fill:#6c63ff;}.c{fill:#ccc;}.d{fill:#ffb8b8;}.e{fill:#2f2e41;}.f{fill:#3f3d56;}.g{opacity:0.2;}</style></defs><path class="a" d="M465.662,584.643v51.784H335.923c-14.782,0-26.809-11.616-26.809-25.892s12.027-25.892,26.809-25.892Z" transform="translate(-276.803 -423.6)"/><path class="b" d="M464.637,634.224a1.993,1.993,0,0,1-1.992,1.992H329.4a27.286,27.286,0,1,1,0-54.573H462.645a1.992,1.992,0,0,1,0,3.983H329.4a23.3,23.3,0,1,0,0,46.606H462.645A1.992,1.992,0,0,1,464.637,634.224Z" transform="translate(-272.592 -421.795)"/><path class="c" d="M490.932,613.44H351.513a.4.4,0,1,1,0-.8H490.932a.4.4,0,1,1,0,.8Z" transform="translate(-302.073 -440.446)"/><path class="c" d="M490.932,637.44H351.513a.4.4,0,1,1,0-.8H490.932a.4.4,0,1,1,0,.8Z" transform="translate(-302.073 -454.886)"/><path class="c" d="M490.932,661.44H351.513a.4.4,0,1,1,0-.8H490.932a.4.4,0,1,1,0,.8Z" transform="translate(-302.073 -469.326)"/><path class="c" d="M490.932,685.44H351.513a.4.4,0,1,1,0-.8H490.932a.4.4,0,1,1,0,.8Z" transform="translate(-302.073 -483.766)"/><path class="a" d="M736.768,476.976,704.277,517.3,603.252,435.9c-11.51-9.275-13.588-25.865-4.63-36.982s25.61-12.616,37.121-3.341Z" transform="translate(-447.639 -306.185)"/><path class="c" d="M702.823,515.459a1.993,1.993,0,0,1-2.8.3l-103.755-83.6a27.286,27.286,0,1,1,34.24-42.495l103.755,83.6a1.992,1.992,0,1,1-2.5,3.1l-103.755-83.6a23.3,23.3,0,0,0-29.241,36.291l103.755,83.6a1.992,1.992,0,0,1,.3,2.8Z" transform="translate(-443.455 -302.655)"/><path class="c" d="M770.81,499.281,662.247,411.807a.4.4,0,0,1,.5-.62l108.563,87.474a.4.4,0,0,1-.5.62Z" transform="translate(-489.179 -319.185)"/><path class="c" d="M755.751,517.97,647.189,430.5a.4.4,0,1,1,.5-.62l108.563,87.474a.4.4,0,0,1-.5.62Z" transform="translate(-480.12 -330.429)"/><path class="c" d="M740.693,536.658,632.13,449.183a.4.4,0,1,1,.5-.62l108.563,87.474a.4.4,0,0,1-.5.62Z" transform="translate(-471.06 -341.673)"/><path class="c" d="M725.635,555.346,617.072,467.872a.4.4,0,0,1,.5-.62l108.563,87.475a.4.4,0,0,1-.5.62Z" transform="translate(-462 -352.917)"/><path class="c" d="M523.967,718.44H228.4a.4.4,0,1,1,0-.8H523.967a.4.4,0,0,1,0,.8Z" transform="translate(-228 -503.62)"/><path class="d" d="M327.932,364.091h-4.554l-2.166-17.565h6.721Z" transform="translate(-193.26 -208.49)"/><path class="e" d="M310.13,387.355h8.783v5.53H304.6A5.53,5.53,0,0,1,310.13,387.355Z" transform="translate(-183.266 -233.056)"/><path class="d" d="M211.137,364.091h-4.554l-2.166-17.565h6.721Z" transform="translate(-122.989 -208.49)"/><path class="e" d="M193.336,387.355h8.783v5.53H187.806a5.53,5.53,0,0,1,5.53-5.53Z" transform="translate(-112.995 -233.056)"/><path class="e" d="M487.471,221.478v-1.992a12.846,12.846,0,0,1,12.846-12.846h0a12.846,12.846,0,0,1,12.846,12.846v1.992a9.261,9.261,0,0,1-9.261,9.261h-7.17a9.261,9.261,0,0,1-9.261-9.261Z" transform="translate(-384.113 -196.17)"/><circle class="d" cx="9.784" cy="9.784" r="9.784" transform="translate(106.421 15.687)"/><path class="d" d="M634.488,376.475" transform="translate(-472.567 -298.353)"/><path class="d" d="M384.32,327.173a3.735,3.735,0,0,1,5.688.668l8.387-1.586,2.207,4.862-11.875,2.074a3.755,3.755,0,0,1-4.407-6.017Z" transform="translate(-321.332 -268.077)"/><path class="c" d="M443.449,283.588l.11.166-13.753,9.06-23.207,7.41a1.4,1.4,0,0,0-.961,1.489l.506,4.361a1.394,1.394,0,0,0,1.677,1.2l21.841-4.682A7.89,7.89,0,0,0,432.6,301.3l15.451-10.993a3.974,3.974,0,0,0-4.491-6.555Z" transform="translate(-334.872 -242.172)"/><path class="e" d="M479.2,430.907a1.8,1.8,0,0,1-1.648-1.076l-20.877-51.585a.6.6,0,0,0-1.119.063l-17.032,50.22a1.793,1.793,0,0,1-2.343,1.152l-5.712-2.142a1.788,1.788,0,0,1-1.154-1.476c-2.569-22.384,19.837-78.883,20.064-79.451l.063-.157,20.426,4.518.043.046c8.149,8.89,14.848,64.962,16.108,76.112a1.784,1.784,0,0,1-1.184,1.891l-5.042,1.783a1.776,1.776,0,0,1-.593.1Z" transform="translate(-348.998 -280.291)"/><path class="c" d="M491.489,309.1c-4.949,0-10.466-.987-12.164-5.059l-.039-.094.053-.087c1.341-2.2,3.112-5.951,2.16-6.656-1.876-1.387-2.786-3.669-2.705-6.782a16.34,16.34,0,0,1,11.459-14.931h0a50.848,50.848,0,0,1,5.681-1.463,9.672,9.672,0,0,1,8.02,1.98,9.77,9.77,0,0,1,3.623,7.517c.07,7.222-1.042,17.281-6.737,24.187a1.772,1.772,0,0,1-1.049.61A48.681,48.681,0,0,1,491.489,309.1Z" transform="translate(-378.889 -236.602)"/><path class="d" d="M505.835,349.243a3.806,3.806,0,0,1,4.652-2.655,3.747,3.747,0,0,1,.577.214l6.368-5.8,4.429,2.984-9.107,8.059a3.8,3.8,0,0,1-4.307,1.827,3.742,3.742,0,0,1-2.611-4.633Z" transform="translate(-395.077 -277.014)"/><path class="c" d="M526.132,314.617a1.788,1.788,0,0,1-1.133-.4l-2.511-2.052a1.793,1.793,0,0,1,.043-2.81l10.533-8.078a.6.6,0,0,0,.113-.834l-6.5-8.595a5.292,5.292,0,0,1,.354-6.817h0a5.277,5.277,0,0,1,7.125-.57l.041.043,6.789,9.72a6.052,6.052,0,0,1-.143,9.634L527.2,314.266A1.8,1.8,0,0,1,526.132,314.617Z" transform="translate(-404.785 -242.314)"/><path class="e" d="M497.965,224.342v-4.854l8.666-3.784,8.263,3.784v4.854a.8.8,0,0,1-.8.8H498.762A.8.8,0,0,1,497.965,224.342Z" transform="translate(-390.427 -201.624)"/><path class="e" d="M518.238,191.471c-1.274-4.078,1.4-8.752,5.358-10.367s8.689-.486,12.027,2.181a20.3,20.3,0,0,1,6.507,10.792,60.453,60.453,0,0,1,1.508,12.7,8.536,8.536,0,1,1-8.181,3.03,10.506,10.506,0,0,0-12.224-16.3C520.837,194.516,517.832,191.913,518.238,191.471Z" transform="translate(-402.432 -180.357)"/><path class="b" d="M354.539,248.772a41.606,41.606,0,0,1-16.869-3.695,1.782,1.782,0,0,1-1.056-1.635V228.936a1.8,1.8,0,0,1,1.793-1.793h32.266a1.8,1.8,0,0,1,1.793,1.793v14.507a1.782,1.782,0,0,1-1.056,1.635h0a41.605,41.605,0,0,1-16.869,3.695Z" transform="translate(-293.349 -208.506)"/><path class="b" d="M340.25,215.557a1.794,1.794,0,0,1-.7-.14l-25.586-10.795a1.792,1.792,0,0,1,.061-3.327l25.587-9.707a1.786,1.786,0,0,1,1.279,0l25.244,9.707a1.793,1.793,0,0,1,.061,3.321l-25.244,10.795A1.8,1.8,0,0,1,340.25,215.557Z" transform="translate(-279.064 -187.044)"/><circle class="f" cx="2.39" cy="2.39" r="2.39" transform="translate(43.863 32.778)"/><path class="g" d="M366.836,219.624l-25.244,10.795a1.593,1.593,0,0,1-1.246,0L314.76,219.627a1.563,1.563,0,0,1-.762-.67,1.592,1.592,0,0,0,.762,2.263l25.586,10.795a1.593,1.593,0,0,0,1.246,0l25.244-10.795a1.592,1.592,0,0,0,.755-2.26,1.565,1.565,0,0,1-.755.667Z" transform="translate(-279.613 -203.581)"/><path class="f" d="M344.017,239.453a.4.4,0,0,0,.4-.4V225.726l13.138-4.786a.4.4,0,1,0,.012-.8l-13.138,4.786a.781.781,0,0,0-.571.229.791.791,0,0,0-.238.568v13.329a.4.4,0,0,0,.4.4Z" transform="translate(-297.563 -204.295)"/><path class="b" d="M354.539,248.772a41.606,41.606,0,0,1-16.869-3.695,1.782,1.782,0,0,1-1.056-1.635V228.936a1.8,1.8,0,0,1,1.793-1.793h32.266a1.8,1.8,0,0,1,1.793,1.793v14.507a1.782,1.782,0,0,1-1.056,1.635h0a41.605,41.605,0,0,1-16.869,3.695Z" transform="translate(-293.349 -208.506)"/><path class="b" d="M340.25,215.557a1.794,1.794,0,0,1-.7-.14l-25.586-10.795a1.792,1.792,0,0,1,.061-3.327l25.587-9.707a1.786,1.786,0,0,1,1.279,0l25.244,9.707a1.793,1.793,0,0,1,.061,3.321l-25.244,10.795A1.8,1.8,0,0,1,340.25,215.557Z" transform="translate(-279.063 -187.044)"/><circle class="f" cx="2.39" cy="2.39" r="2.39" transform="translate(43.863 32.778)"/><path class="f" d="M344.017,239.453a.4.4,0,0,0,.4-.4V225.726l13.138-4.786a.4.4,0,1,0,.012-.8l-13.138,4.786a.781.781,0,0,0-.571.229.791.791,0,0,0-.238.568v13.329a.4.4,0,0,0,.4.4Z" transform="translate(-297.563 -204.294)"/><path class="b" d="M354.539,248.772a41.606,41.606,0,0,1-16.869-3.695,1.782,1.782,0,0,1-1.056-1.635V228.936a1.8,1.8,0,0,1,1.793-1.793h32.266a1.8,1.8,0,0,1,1.793,1.793v14.507a1.782,1.782,0,0,1-1.056,1.635h0a41.605,41.605,0,0,1-16.869,3.695Z" transform="translate(-293.349 -208.506)"/><path class="b" d="M340.25,215.557a1.794,1.794,0,0,1-.7-.14l-25.586-10.795a1.792,1.792,0,0,1,.061-3.327l25.587-9.707a1.786,1.786,0,0,1,1.279,0l25.244,9.707a1.793,1.793,0,0,1,.061,3.321l-25.244,10.795A1.8,1.8,0,0,1,340.25,215.557Z" transform="translate(-279.063 -187.044)"/><circle class="f" cx="2.39" cy="2.39" r="2.39" transform="translate(43.863 32.778)"/><path class="f" d="M344.017,239.453a.4.4,0,0,0,.4-.4V225.726l13.138-4.786a.4.4,0,1,0,.012-.8l-13.138,4.786a.781.781,0,0,0-.571.229.791.791,0,0,0-.238.568v13.329a.4.4,0,0,0,.4.4Z" transform="translate(-297.563 -204.294)"/><path class="b" d="M354.539,248.772a41.606,41.606,0,0,1-16.869-3.695,1.782,1.782,0,0,1-1.056-1.635V228.936a1.8,1.8,0,0,1,1.793-1.793h32.266a1.8,1.8,0,0,1,1.793,1.793v14.507a1.782,1.782,0,0,1-1.056,1.635h0a41.605,41.605,0,0,1-16.869,3.695Z" transform="translate(-293.349 -208.506)"/><path class="b" d="M340.25,215.557a1.794,1.794,0,0,1-.7-.14l-25.586-10.795a1.792,1.792,0,0,1,.061-3.327l25.587-9.707a1.786,1.786,0,0,1,1.279,0l25.244,9.707a1.793,1.793,0,0,1,.061,3.321l-25.244,10.795A1.8,1.8,0,0,1,340.25,215.557Z" transform="translate(-279.063 -187.044)"/><circle class="f" cx="2.39" cy="2.39" r="2.39" transform="translate(43.863 32.778)"/><path class="f" d="M344.017,239.453a.4.4,0,0,0,.4-.4V225.726l13.138-4.786a.4.4,0,1,0,.012-.8l-13.138,4.786a.781.781,0,0,0-.571.229.791.791,0,0,0-.238.568v13.329a.4.4,0,0,0,.4.4Z" transform="translate(-297.563 -204.294)"/></svg>