<svg xmlns="http://www.w3.org/2000/svg" width="300.171" height="209.2" viewBox="0 0 300.171 209.2"><defs><style>.a{fill:#f2f2f2;}.b{fill:#2f2e41;}.c{opacity:0.2;}.d{fill:#6c63ff;}.e{fill:#ffb8b8;}.f{fill:#3f3d56;}</style></defs><path class="a" d="M195.992,26.994,197.3,135.179l56.663,27.6L252.655,54.6Z" transform="translate(-133.245 -18.352)"/><path class="a" d="M52.3,0,9.957,86.921l57.45,27.985L66.1,6.721Z" transform="translate(-6.769)"/><path class="a" d="M694.758,263.125,580.4,207.422l1.311,108.184,70.7,34.44Z" transform="translate(-394.587 -141.016)"/><path class="a" d="M388.982,113.208l1.311,108.184,56.664,27.6-1.311-108.184Z" transform="translate(-264.45 -76.965)"/><path class="b" d="M578.3,500.784l-1.6,35.857s4.162,33.936,3.2,34.9-3.522,2.881-1.6,5.122,8.964,3.842,9.284,2.561.96-37.778.96-37.778l2.241-43.22Z" transform="translate(-434.075 -378.184)"/><path class="c" d="M578.3,500.784l-1.6,35.857s4.162,33.936,3.2,34.9-3.522,2.881-1.6,5.122,8.964,3.842,9.284,2.561.96-37.778.96-37.778l2.241-43.22Z" transform="translate(-434.075 -378.184)"/><path class="b" d="M555.617,741.222s-8,6.083-8.964,6.083-9.6,2.881-3.522,4.162,20.81.64,21.13-1.281-.961-7.75-.961-7.75Z" transform="translate(-409.789 -543.388)"/><path class="c" d="M555.617,741.222s-8,6.083-8.964,6.083-9.6,2.881-3.522,4.162,20.81.64,21.13-1.281-.961-7.75-.961-7.75Z" transform="translate(-409.789 -543.388)"/><path class="d" d="M501.407,422.222s-3.522,1.281-3.522,2.241-3.2,13.126-3.842,13.766-.96,3.522-.96,3.522-3.2,7.363-2.561,7.363,6.083-1.281,6.4,0,2.881-8,2.881-8l5.443-10.885Z" transform="translate(-375.428 -326.515)"/><path class="e" d="M490.7,507.5s.96,7.043,3.522,7.684,0-8.964,0-8.964Z" transform="translate(-375.608 -383.623)"/><path class="e" d="M516.7,400.134s1.921,4.162,2.881,6.4,9.925-5.763,9.925-5.763-4.8-3.522-4.8-5.122S516.7,400.134,516.7,400.134Z" transform="translate(-393.284 -308.269)"/><path class="f" d="M226.864,701.536c2.147,7.937,9.5,12.852,9.5,12.852s3.873-7.953,1.726-15.889-9.5-12.852-9.5-12.852S224.717,693.6,226.864,701.536Z" transform="translate(-195.797 -505.605)"/><path class="d" d="M206.829,716.747c5.891,5.735,6.611,14.551,6.611,14.551s-8.832-.482-14.724-6.217S192.1,710.53,192.1,710.53,200.937,711.012,206.829,716.747Z" transform="translate(-172.607 -522.521)"/><path class="b" d="M404.835,652.489a29.134,29.134,0,1,1,29.134-29.134,29.134,29.134,0,0,1-29.134,29.134Zm0-57.627a28.493,28.493,0,1,0,28.493,28.493,28.493,28.493,0,0,0-28.493-28.493Z" transform="translate(-297.425 -443.45)"/><path class="b" d="M684.835,652.489a29.134,29.134,0,1,1,29.134-29.134,29.134,29.134,0,0,1-29.134,29.134Zm0-57.627a28.493,28.493,0,1,0,28.493,28.493A28.493,28.493,0,0,0,684.835,594.863Z" transform="translate(-487.783 -443.45)"/><circle class="b" cx="1.921" cy="1.921" r="1.921" transform="translate(105.489 177.985)"/><circle class="b" cx="1.921" cy="1.921" r="1.921" transform="translate(195.771 177.985)"/><path class="b" d="M343.169,469.439l-.589-.251,16.733-39.257,47.449.968.092.144,23.371,36.5-.539.345-23.279-36.353-46.675-.953Z" transform="translate(-232.903 -292.289)"/><path class="b" d="M500.125,484.038l12.3-43.366.616.174L501.005,483.28l32.175-4.1.081.635Z" transform="translate(-340.01 -299.591)"/><rect class="b" width="0.64" height="47.089" transform="matrix(0.714, -0.7, 0.7, 0.714, 124.79, 147.794)"/><rect class="b" width="7.301" height="0.64" transform="matrix(0.263, -0.965, 0.965, 0.263, 173.694, 137.881)"/><path class="b" d="M388.974,400.9l-.625-.142,1.512-6.652H384.5v-4.162h.64v3.522h5.523Z" transform="translate(-261.403 -265.104)"/><path class="b" d="M643.7,509.612s0-1.921,4.162-.96,16.968,3.522,17.928,3.2.64,1.921-3.522,2.881-8.964-1.281-9.925-1.921S643.7,509.612,643.7,509.612Z" transform="translate(-479.625 -385.091)"/><rect class="d" width="8.324" height="3.201" transform="translate(144.227 181.827)"/><path class="b" d="M619.1,691.028a6.4,6.4,0,1,1,6.4-6.4A6.4,6.4,0,0,1,619.1,691.028Zm0-12.166a5.763,5.763,0,1,0,5.763,5.763A5.763,5.763,0,0,0,619.1,678.863Z" transform="translate(-458.55 -500.557)"/><circle class="e" cx="7.684" cy="7.684" r="7.684" transform="translate(118.615 79.699)"/><path class="b" d="M555.465,498.855s-22.09,12.806-21.77,16.968,16.968,26.893,16.968,26.893,1.281,6.723,2.561,6.723,9.284,2.881,9.6.96-2.561-4.162-2.241-5.443S546.5,520.305,546.5,520.305s30.833-11.525,24.38-21.45S555.465,498.855,555.465,498.855Z" transform="translate(-404.834 -375.616)"/><path class="b" d="M574.609,662.222s-3.842.96-4.482,2.241-11.846,5.443-8.644,6.4,21.77,1.281,22.411.64,0-8.072-2.561-8.038S575.89,664.463,574.609,662.222Z" transform="translate(-423.338 -489.679)"/><path class="d" d="M519.583,413.252l7.2-8.8s8.164-2.4,11.685,2.4S551.6,423.5,554.8,426.058s7.684,12.486,6.083,12.806-10.565-3.522-14.087-.96-10.245,2.881-10.565,1.6S516.7,416.773,516.7,413.892s2.047-3.5,2.047-3.5Z" transform="translate(-393.284 -314.023)"/><rect class="b" width="12.166" height="1.921" rx="0.96" transform="matrix(0.943, 0.333, -0.333, 0.943, 119.604, 120.946)"/><path class="e" d="M447.823,500.222s-11.205,3.2-10.245,6.723,11.205-4.162,11.205-4.162Z" transform="translate(-339.452 -379.544)"/><path class="d" d="M494.548,412.98s-4.482,3.842-5.443,8.324-5.763,12.486-5.763,12.486l-19.529,6.4s-1.281,6.083.64,6.083,23.371-4.482,24.011-5.443,14.407-19.209,14.407-19.209S504.153,411.7,494.548,412.98Z" transform="translate(-357.044 -320.154)"/><path class="b" d="M501.924,365.078a1.516,1.516,0,0,1-.66.331.471.471,0,0,1-.546-.378,1.956,1.956,0,0,1-.749.96c-.367.191-.933.031-.986-.379a1.731,1.731,0,0,1-.4.841.6.6,0,0,1-.839.028,21.555,21.555,0,0,1,.112,2.67,3.4,3.4,0,0,0,.961,2.42c.981.854,2.457.643,3.747.481a1.138,1.138,0,0,1,.587.032c.483.206.461.879.468,1.4a3.9,3.9,0,0,0,3.416,3.7,1.955,1.955,0,0,0,1.453-.355c.366-.311.554-.817.974-1.05.683-.38,1.511.174,2.011.775s.992,1.34,1.765,1.45c1.023.145,1.8-.9,2.185-1.857a10.828,10.828,0,0,0-.215-8.413C513.074,363.086,505.776,362.349,501.924,365.078Z" transform="translate(-380.398 -286.588)"/><path class="b" d="M904.038,623.9l-.569-.294c7.39-14.286,3.438-32.839-1.178-45.888a140.638,140.638,0,0,0-11.934-25.188l.541-.342a141.357,141.357,0,0,1,12,25.316C907.553,590.672,911.532,609.41,904.038,623.9Z" transform="translate(-647.314 -414.873)"/><rect class="b" width="23.108" height="0.64" transform="translate(258.051 160.162) rotate(-79.645)"/><rect class="b" width="0.641" height="31.487" transform="matrix(0.732, -0.681, 0.681, 0.732, 234.115, 157.233)"/><rect class="b" width="18.571" height="0.64" transform="matrix(0.586, -0.81, 0.81, 0.586, 262.266, 197.17)"/><circle class="d" cx="3.201" cy="3.201" r="3.201" transform="translate(260.922 125.001)"/><circle class="f" cx="3.201" cy="3.201" r="3.201" transform="translate(226.025 149.652)"/><circle class="f" cx="3.201" cy="3.201" r="3.201" transform="translate(240.112 152.854)"/><circle class="d" cx="3.201" cy="3.201" r="3.201" transform="translate(233.709 165.339)"/><circle class="f" cx="3.201" cy="3.201" r="3.201" transform="translate(273.728 173.343)"/><circle class="f" cx="3.201" cy="3.201" r="3.201" transform="translate(263.163 176.865)"/><circle class="f" cx="3.201" cy="3.201" r="3.201" transform="translate(270.526 187.11)"/><circle class="f" cx="3.201" cy="3.201" r="3.201" transform="translate(236.911 128.842)"/><rect class="b" width="289.095" height="0.64" transform="translate(0 208.56)"/><rect class="a" width="31.375" height="31.375" transform="translate(22.431 126.579) rotate(30)"/><path class="f" d="M224.245,639.671a7.043,7.043,0,1,1,7.043-7.043,7.043,7.043,0,0,1-7.043,7.043Zm0-13.446a6.4,6.4,0,1,0,6.4,6.4A6.4,6.4,0,0,0,224.245,626.225Z" transform="translate(-189.669 -464.771)"/></svg>