<svg xmlns="http://www.w3.org/2000/svg" width="260.607" height="217.888" viewBox="0 0 260.607 217.888"><defs><style>.a{fill:#f2f2f2;}.b{fill:#3f3d56;}.c{fill:#fff;}.d{fill:#6c63ff;}.e{fill:#2f2e41;}.f{fill:#a0616a;}.g{fill:#e6e6e6;}.h{fill:#ffb8b8;}</style></defs><ellipse class="a" cx="102.922" cy="5.263" rx="102.922" ry="5.263" transform="translate(19.486 207.362)"/><path class="b" d="M521.866,127.971H520.7V95.941A18.538,18.538,0,0,0,502.159,77.4H434.3A18.538,18.538,0,0,0,415.76,95.941V271.66A18.538,18.538,0,0,0,434.3,290.2h67.86A18.538,18.538,0,0,0,520.7,271.661V150.771h1.169Z" transform="translate(-339.327 -77.403)"/><path class="c" d="M529.131,107.742V283.2a13.845,13.845,0,0,1-13.845,13.845H447.1A13.845,13.845,0,0,1,433.256,283.2V107.742A13.845,13.845,0,0,1,447.1,93.9h8.272a6.581,6.581,0,0,0,6.091,9.061h38.876A6.581,6.581,0,0,0,506.43,93.9h8.857a13.845,13.845,0,0,1,13.845,13.844Z" transform="translate(-351.707 -89.074)"/><path class="d" d="M624.928,383.629q-.68.355-1.383.672-.64.289-1.3.544l-.488.184a26.175,26.175,0,0,1-3.977,1.1q-1,.2-2.035.31-.851.1-1.719.137c-.412.02-.825.029-1.24.029a26.27,26.27,0,0,1-4.9-.459c-.421-.076-.833-.167-1.246-.266a25.96,25.96,0,0,1-5.751-2.123c-.164-.082-.327-.17-.491-.254-.243-.129-.479-.263-.716-.4.114-.158.237-.313.362-.465a15.507,15.507,0,0,1,23.061-1.2,15.871,15.871,0,0,1,1.479,1.713C624.7,383.3,624.817,383.465,624.928,383.629Z" transform="translate(-469.47 -289.304)"/><circle class="e" cx="12.839" cy="12.839" r="12.839" transform="translate(131.06 55.804)"/><circle class="f" cx="9.556" cy="9.556" r="9.556" transform="translate(129.761 69.313) rotate(-28.663)"/><path class="e" d="M631.747,294.522a13,13,0,0,1-7.427,2.3,7.964,7.964,0,0,0,3.157,1.3,26.206,26.206,0,0,1-10.7.06,6.928,6.928,0,0,1-2.241-.77,2.836,2.836,0,0,1-1.383-1.85c-.235-1.342.811-2.561,1.9-3.382a13.993,13.993,0,0,1,11.759-2.35,6.439,6.439,0,0,1,3.483,1.968,3.172,3.172,0,0,1,.293,3.767Z" transform="translate(-478.977 -227.418)"/><path class="b" d="M580.808,230.173a26.311,26.311,0,0,0-13.7,48.78l.17.1q.21.127.421.246c.237.14.474.275.716.4.164.085.328.173.491.254a25.959,25.959,0,0,0,5.751,2.123c.412.1.825.19,1.246.266a26.271,26.271,0,0,0,4.9.459c.415,0,.828-.009,1.24-.029q.868-.039,1.719-.137,1.031-.114,2.035-.31a26.179,26.179,0,0,0,3.977-1.1l.488-.184q.662-.254,1.3-.544.7-.316,1.383-.672a26.547,26.547,0,0,0,10.83-10.517c.012-.023.026-.047.038-.07a26.316,26.316,0,0,0-23.011-39.069ZM603.34,268.9c-.023.041-.044.082-.067.12a25.781,25.781,0,0,1-10.667,10.327q-.671.351-1.365.658c-.383.173-.775.336-1.17.488-.167.064-.336.129-.506.187a25.067,25.067,0,0,1-3.43.982,24.76,24.76,0,0,1-2.617.412c-.541.058-1.091.1-1.643.12-.354.015-.71.023-1.067.023a25.367,25.367,0,0,1-4.742-.442,25.033,25.033,0,0,1-2.816-.69,25.862,25.862,0,0,1-4.09-1.658c-.152-.079-.3-.158-.453-.24-.214-.114-.43-.231-.64-.357-.158-.088-.316-.181-.471-.275-.091-.053-.181-.108-.272-.164A25.75,25.75,0,1,1,603.34,268.9Z" transform="translate(-437.494 -185.505)"/><path class="e" d="M609.738,263.974a2.571,2.571,0,0,0-3.309-1.908,4.162,4.162,0,0,0-2.581,3.273,4.7,4.7,0,0,0,.633,3.544,3.23,3.23,0,0,0,3.2,1.387,3.714,3.714,0,0,0,2.6-3.018,10.913,10.913,0,0,0-.269-4.185Z" transform="translate(-472.341 -207.993)"/><path class="e" d="M676.72,271.071a2.571,2.571,0,0,0-3.309-1.908,4.162,4.162,0,0,0-2.581,3.273,4.7,4.7,0,0,0,.633,3.544,3.23,3.23,0,0,0,3.2,1.387,3.714,3.714,0,0,0,2.6-3.018,10.912,10.912,0,0,0-.269-4.185Z" transform="translate(-519.738 -213.015)"/><path class="c" d="M252.182,227.268a1.308,1.308,0,0,1-.967-.428l-14.509-15.828a1.76,1.76,0,0,0-1.294-.569H158.741a4.394,4.394,0,0,1-4.389-4.389V178.4a4.394,4.394,0,0,1,4.389-4.389h99.333a4.394,4.394,0,0,1,4.389,4.389v27.649a4.394,4.394,0,0,1-4.389,4.389h-2.816A1.758,1.758,0,0,0,253.5,212.2V225.95a1.308,1.308,0,0,1-.839,1.227,1.323,1.323,0,0,1-.481.091Z" transform="translate(-154.353 -145.767)"/><path class="b" d="M252.182,227.268a1.308,1.308,0,0,1-.967-.428l-14.509-15.828a1.76,1.76,0,0,0-1.294-.569H158.741a4.394,4.394,0,0,1-4.389-4.389V178.4a4.394,4.394,0,0,1,4.389-4.389h99.333a4.394,4.394,0,0,1,4.389,4.389v27.649a4.394,4.394,0,0,1-4.389,4.389h-2.816A1.758,1.758,0,0,0,253.5,212.2V225.95a1.308,1.308,0,0,1-.839,1.227,1.323,1.323,0,0,1-.481.091ZM158.741,174.6a3.808,3.808,0,0,0-3.8,3.8v27.649a3.808,3.808,0,0,0,3.8,3.8h76.671a2.346,2.346,0,0,1,1.725.759l14.509,15.828a.732.732,0,0,0,1.271-.494V212.2a2.343,2.343,0,0,1,2.34-2.341h2.816a3.808,3.808,0,0,0,3.8-3.8V178.4a3.808,3.808,0,0,0-3.8-3.8Z" transform="translate(-154.353 -145.767)"/><circle class="d" cx="3.84" cy="3.84" r="3.84" transform="translate(6.924 32.765)"/><path class="g" d="M270.1,265.356H179.728a2.048,2.048,0,0,1,0-4.1H270.1a2.048,2.048,0,0,1,0,4.1Z" transform="translate(-170.859 -207.502)"/><path class="g" d="M240.659,235.587H179.728a2.048,2.048,0,0,1,0-4.1h60.931a2.048,2.048,0,1,1,0,4.1Z" transform="translate(-170.859 -186.437)"/><path class="c" d="M685.7,548.177a1.308,1.308,0,0,1-.839-1.227V533.2a1.758,1.758,0,0,0-1.756-1.756h-2.816a4.394,4.394,0,0,1-4.389-4.389V499.4a4.394,4.394,0,0,1,4.389-4.389h99.333a4.393,4.393,0,0,1,4.389,4.389v27.649a4.393,4.393,0,0,1-4.389,4.389H702.954a1.76,1.76,0,0,0-1.294.569L687.151,547.84a1.309,1.309,0,0,1-.967.428A1.322,1.322,0,0,1,685.7,548.177Z" transform="translate(-523.407 -372.909)"/><path class="b" d="M685.7,548.177a1.308,1.308,0,0,1-.839-1.227V533.2a1.758,1.758,0,0,0-1.756-1.756h-2.816a4.394,4.394,0,0,1-4.389-4.389V499.4a4.394,4.394,0,0,1,4.389-4.389h99.333a4.393,4.393,0,0,1,4.389,4.389v27.649a4.393,4.393,0,0,1-4.389,4.389H702.954a1.76,1.76,0,0,0-1.294.569L687.151,547.84a1.309,1.309,0,0,1-.967.428A1.322,1.322,0,0,1,685.7,548.177ZM680.292,495.6a3.808,3.808,0,0,0-3.8,3.8v27.649a3.808,3.808,0,0,0,3.8,3.8h2.816a2.343,2.343,0,0,1,2.34,2.341V546.95a.732.732,0,0,0,1.271.494l14.509-15.828a2.346,2.346,0,0,1,1.725-.759h76.671a3.808,3.808,0,0,0,3.8-3.8V499.4a3.808,3.808,0,0,0-3.8-3.8Z" transform="translate(-523.407 -372.909)"/><path class="d" d="M537.262,687.078a26.043,26.043,0,0,1-27.383.436,15.827,15.827,0,0,1,2.749-3.7,15.623,15.623,0,0,1,24.534,3.091C537.2,686.961,537.23,687.02,537.262,687.078Z" transform="translate(-405.927 -503.249)"/><circle class="e" cx="12.924" cy="12.924" r="12.924" transform="translate(103.577 143.999)"/><circle class="h" cx="9.619" cy="9.619" r="9.619" transform="translate(104.623 165.252) rotate(-61.337)"/><path class="e" d="M522.25,596.33a13.083,13.083,0,0,0,7.477,2.311,8.017,8.017,0,0,1-3.178,1.307,26.381,26.381,0,0,0,10.776.061,6.973,6.973,0,0,0,2.256-.775,2.855,2.855,0,0,0,1.392-1.862c.236-1.351-.816-2.578-1.91-3.4a14.086,14.086,0,0,0-11.837-2.365,6.482,6.482,0,0,0-3.506,1.981,3.193,3.193,0,0,0-.295,3.792Z" transform="translate(-414.68 -440.955)"/><path class="b" d="M491.849,593.833a26.307,26.307,0,1,1,14.2-4.157,26.307,26.307,0,0,1-14.2,4.157Zm0-52.046a25.733,25.733,0,1,0,25.73,25.731A25.733,25.733,0,0,0,491.849,541.788Z" transform="translate(-374.557 -405.601)"/><circle class="d" cx="3.84" cy="3.84" r="3.84" transform="translate(161.015 126.33)"/><path class="g" d="M797.1,585.356H706.728a2.048,2.048,0,0,1,0-4.1H797.1a2.048,2.048,0,0,1,0,4.1Z" transform="translate(-543.769 -433.937)"/><path class="g" d="M767.659,555.587H706.728a2.048,2.048,0,0,1,0-4.1h60.931a2.048,2.048,0,0,1,0,4.1Z" transform="translate(-543.769 -412.871)"/><ellipse class="a" cx="7.165" cy="0.795" rx="7.165" ry="0.795" transform="translate(155.008 176.295)"/><ellipse class="a" cx="7.165" cy="0.795" rx="7.165" ry="0.795" transform="translate(90.974 82.73)"/></svg>