<svg xmlns="http://www.w3.org/2000/svg" xmlns:xlink="http://www.w3.org/1999/xlink" width="366.001" height="103.707" viewBox="0 0 366.001 103.707"><defs><style>.a,.k,.l{fill:none;}.a,.c,.d,.e,.g,.h{stroke:#9371be;}.a,.b,.d,.e,.g,.h{stroke-linejoin:round;}.a,.c,.e,.g,.h{stroke-width:3px;}.b,.e{fill:#f5edff;}.c,.f,.h{fill:#fff;}.d{fill:#d5b3ff;stroke-width:2px;}.g{fill:#d6b5ff;}.i,.j{stroke:none;}.j{fill:#9371be;}.l{clip-path:url(#b);}</style><clipPath id="b"><use xlink:href="#a"/></clipPath></defs><g transform="translate(0.001 -637.793)"><g transform="translate(-8003.748 469.506)"><path class="a" d="M8048.281,317.507l8.644,37.044h37.146l9.534-37.044Z" transform="translate(-25.087 -84.057)"/><path class="a" d="M8099.474,304.729v-9.906H8029.3v9.906Z" transform="translate(-14.393 -71.28)"/><g class="b" transform="translate(8063.125 168.287) rotate(90)"><path class="i" d="M 26.29668998718262 23.39105796813965 C 20.75687980651855 23.39105796813965 15.43505954742432 22.23689842224121 10.906569480896 20.05335807800293 C 6.884355068206787 18.11393356323242 3.739919185638428 15.49540328979492 1.75792133808136 12.44552707672119 C 3.739919185638428 9.395642280578613 6.884355068206787 6.777113914489746 10.906569480896 4.837697982788086 C 15.43505001068115 2.654158115386963 20.75687026977539 1.499997973442078 26.29668998718262 1.499997973442078 C 31.8363094329834 1.499997973442078 37.15797805786133 2.654158115386963 41.68637847900391 4.837687969207764 C 45.70853042602539 6.777122020721436 48.85292053222656 9.395648002624512 50.83490371704102 12.44552326202393 C 48.85292053222656 15.49539947509766 45.70853042602539 18.11393356323242 41.68637847900391 20.05335807800293 C 37.15797805786133 22.23689842224121 31.8363094329834 23.39105796813965 26.29668998718262 23.39105796813965 Z"/><path class="j" d="M 26.29668998718262 2.999998092651367 C 20.98110008239746 2.999998092651367 15.88455963134766 4.102678298950195 11.55804824829102 6.188827514648438 C 9.519638061523438 7.171697616577148 7.708309173583984 8.347797393798828 6.174381256103516 9.684457778930664 C 5.177886962890625 10.55278587341309 4.312297821044922 11.47706890106201 3.587486267089844 12.44552707672119 C 4.312297821044922 13.41398620605469 5.177883148193359 14.33825969696045 6.174369812011719 15.20658779144287 C 7.708309173583984 16.54324722290039 9.519638061523438 17.7193489074707 11.55804824829102 18.70222854614258 C 15.88457107543945 20.78837776184082 20.98110008239746 21.89105796813965 26.29668998718262 21.89105796813965 C 31.61207008361816 21.89105796813965 36.70845794677734 20.78837776184082 41.03488159179688 18.70223808288574 C 43.07324981689453 17.71935844421387 44.88454818725586 16.54325866699219 46.4184684753418 15.20660781860352 C 47.41494750976562 14.33827304840088 48.28053283691406 13.41398334503174 49.00534057617188 12.44552421569824 C 48.28053283691406 11.47706317901611 47.41494750976562 10.55277633666992 46.4184684753418 9.6844482421875 C 44.88454818725586 8.347787857055664 43.07324981689453 7.171688079833984 41.03488159179688 6.188817977905273 C 36.70845794677734 4.102678298950195 31.61207962036133 2.999998092651367 26.29668998718262 2.999998092651367 M 26.29668998718262 -1.9073486328125e-06 C 38.20582962036133 -1.9073486328125e-06 48.3986701965332 5.148977279663086 52.59281921386719 12.44552803039551 C 48.3986701965332 19.74205780029297 38.20582962036133 24.89105796813965 26.29668998718262 24.89105796813965 C 14.38713073730469 24.89105796813965 4.194168090820312 19.74205780029297 0 12.44552803039551 C 4.194168090820312 5.148977279663086 14.38713073730469 -1.9073486328125e-06 26.29668998718262 -1.9073486328125e-06 Z"/></g><g class="b" transform="translate(8022.245 173.701) rotate(48)"><path class="i" d="M 26.29668998718262 23.39105796813965 C 20.75687980651855 23.39105796813965 15.43505954742432 22.23689842224121 10.906569480896 20.05335807800293 C 6.884355068206787 18.11393356323242 3.739919185638428 15.49540328979492 1.75792133808136 12.44552707672119 C 3.739919185638428 9.395642280578613 6.884355068206787 6.777113914489746 10.906569480896 4.837697982788086 C 15.43505001068115 2.654158115386963 20.75687026977539 1.499997973442078 26.29668998718262 1.499997973442078 C 31.8363094329834 1.499997973442078 37.15797805786133 2.654158115386963 41.68637847900391 4.837687969207764 C 45.70853042602539 6.777122020721436 48.85292053222656 9.395648002624512 50.83490371704102 12.44552326202393 C 48.85292053222656 15.49539947509766 45.70853042602539 18.11393356323242 41.68637847900391 20.05335807800293 C 37.15797805786133 22.23689842224121 31.8363094329834 23.39105796813965 26.29668998718262 23.39105796813965 Z"/><path class="j" d="M 26.29668998718262 2.999998092651367 C 20.98110008239746 2.999998092651367 15.88455963134766 4.102678298950195 11.55804824829102 6.188827514648438 C 9.519638061523438 7.171697616577148 7.708309173583984 8.347797393798828 6.174381256103516 9.684457778930664 C 5.177886962890625 10.55278587341309 4.312297821044922 11.47706890106201 3.587486267089844 12.44552707672119 C 4.312297821044922 13.41398620605469 5.177883148193359 14.33825969696045 6.174369812011719 15.20658779144287 C 7.708309173583984 16.54324722290039 9.519638061523438 17.7193489074707 11.55804824829102 18.70222854614258 C 15.88457107543945 20.78837776184082 20.98110008239746 21.89105796813965 26.29668998718262 21.89105796813965 C 31.61207008361816 21.89105796813965 36.70845794677734 20.78837776184082 41.03488159179688 18.70223808288574 C 43.07324981689453 17.71935844421387 44.88454818725586 16.54325866699219 46.4184684753418 15.20660781860352 C 47.41494750976562 14.33827304840088 48.28053283691406 13.41398334503174 49.00534057617188 12.44552421569824 C 48.28053283691406 11.47706317901611 47.41494750976562 10.55277633666992 46.4184684753418 9.6844482421875 C 44.88454818725586 8.347787857055664 43.07324981689453 7.171688079833984 41.03488159179688 6.188817977905273 C 36.70845794677734 4.102678298950195 31.61207962036133 2.999998092651367 26.29668998718262 2.999998092651367 M 26.29668998718262 -1.9073486328125e-06 C 38.20582962036133 -1.9073486328125e-06 48.3986701965332 5.148977279663086 52.59281921386719 12.44552803039551 C 48.3986701965332 19.74205780029297 38.20582962036133 24.89105796813965 26.29668998718262 24.89105796813965 C 14.38713073730469 24.89105796813965 4.194168090820312 19.74205780029297 0 12.44552803039551 C 4.194168090820312 5.148977279663086 14.38713073730469 -1.9073486328125e-06 26.29668998718262 -1.9073486328125e-06 Z"/></g><g class="b" transform="translate(8098.24 191.263) rotate(133)"><path class="i" d="M 26.29668998718262 23.39105796813965 C 20.75687980651855 23.39105796813965 15.43505954742432 22.23689842224121 10.906569480896 20.05335807800293 C 6.884355068206787 18.11393356323242 3.739919185638428 15.49540328979492 1.75792133808136 12.44552707672119 C 3.739919185638428 9.395642280578613 6.884355068206787 6.777113914489746 10.906569480896 4.837697982788086 C 15.43505001068115 2.654158115386963 20.75687026977539 1.499997973442078 26.29668998718262 1.499997973442078 C 31.8363094329834 1.499997973442078 37.15797805786133 2.654158115386963 41.68637847900391 4.837687969207764 C 45.70853042602539 6.777122020721436 48.85292053222656 9.395648002624512 50.83490371704102 12.44552326202393 C 48.85292053222656 15.49539947509766 45.70853042602539 18.11393356323242 41.68637847900391 20.05335807800293 C 37.15797805786133 22.23689842224121 31.8363094329834 23.39105796813965 26.29668998718262 23.39105796813965 Z"/><path class="j" d="M 26.29668998718262 2.999998092651367 C 20.98110008239746 2.999998092651367 15.88455963134766 4.102678298950195 11.55804824829102 6.188827514648438 C 9.519638061523438 7.171697616577148 7.708309173583984 8.347797393798828 6.174381256103516 9.684457778930664 C 5.177886962890625 10.55278587341309 4.312297821044922 11.47706890106201 3.587486267089844 12.44552707672119 C 4.312297821044922 13.41398620605469 5.177883148193359 14.33825969696045 6.174369812011719 15.20658779144287 C 7.708309173583984 16.54324722290039 9.519638061523438 17.7193489074707 11.55804824829102 18.70222854614258 C 15.88457107543945 20.78837776184082 20.98110008239746 21.89105796813965 26.29668998718262 21.89105796813965 C 31.61207008361816 21.89105796813965 36.70845794677734 20.78837776184082 41.03488159179688 18.70223808288574 C 43.07324981689453 17.71935844421387 44.88454818725586 16.54325866699219 46.4184684753418 15.20660781860352 C 47.41494750976562 14.33827304840088 48.28053283691406 13.41398334503174 49.00534057617188 12.44552421569824 C 48.28053283691406 11.47706317901611 47.41494750976562 10.55277633666992 46.4184684753418 9.6844482421875 C 44.88454818725586 8.347787857055664 43.07324981689453 7.171688079833984 41.03488159179688 6.188817977905273 C 36.70845794677734 4.102678298950195 31.61207962036133 2.999998092651367 26.29668998718262 2.999998092651367 M 26.29668998718262 -1.9073486328125e-06 C 38.20582962036133 -1.9073486328125e-06 48.3986701965332 5.148977279663086 52.59281921386719 12.44552803039551 C 48.3986701965332 19.74205780029297 38.20582962036133 24.89105796813965 26.29668998718262 24.89105796813965 C 14.38713073730469 24.89105796813965 4.194168090820312 19.74205780029297 0 12.44552803039551 C 4.194168090820312 5.148977279663086 14.38713073730469 -1.9073486328125e-06 26.29668998718262 -1.9073486328125e-06 Z"/></g><path class="c" d="M8111.221,170.419V221.39" transform="translate(-60.541 -1.201)"/><path class="c" d="M8025.723,200.94l34.092,37.717" transform="translate(-12.379 -18.394)"/><path class="c" d="M8118.154,240.282l34.987-37.552" transform="translate(-64.447 -19.402)"/></g><g transform="translate(48.504 -4061.85)"><path class="d" d="M401.135,645.088a25.433,25.433,0,1,1,25.433-25.433,25.433,25.433,0,0,1-25.433,25.433Zm0-50.307a24.874,24.874,0,1,0,24.874,24.874A24.874,24.874,0,0,0,401.135,594.781Z" transform="translate(-179.596 4156.762)"/><path class="d" d="M681.134,645.088a25.433,25.433,0,1,1,25.433-25.433A25.433,25.433,0,0,1,681.134,645.088Zm0-50.307a24.874,24.874,0,1,0,24.874,24.874A24.874,24.874,0,0,0,681.134,594.781Z" transform="translate(-390.071 4156.762)"/><ellipse class="d" cx="1.677" cy="1.677" rx="1.677" ry="1.677" transform="translate(218.212 4774.739)"/><ellipse class="d" cx="1.677" cy="1.677" rx="1.677" ry="1.677" transform="translate(291.556 4774.739)"/><path class="d" d="M343.094,464.421l-.514-.219,14.607-34.27,41.422.845.08.126,20.4,31.861-.471.3L398.3,431.329l-40.746-.832Z" transform="translate(-123.612 4309.59)"/><path class="d" d="M500.125,478.529l10.736-37.858.538.152-10.5,37.044,28.088-3.58.07.555Z" transform="translate(-238.802 4301.851)"/><rect class="d" width="0.559" height="41.108" transform="matrix(0.714, -0.7, 0.7, 0.714, 233.163, 4748.384)"/><rect class="d" width="6.373" height="0.559" transform="matrix(0.263, -0.965, 0.965, 0.263, 273.672, 4739.73)"/><path class="d" d="M388.406,399.509l-.546-.124,1.32-5.807H384.5v-3.633h.559v3.074h4.822Z" transform="translate(-152.027 4338.401)"/><path class="d" d="M643.7,509.455s0-1.677,3.633-.838,14.813,3.074,15.651,2.795.559,1.677-3.074,2.515-7.825-1.118-8.664-1.677S643.7,509.455,643.7,509.455Z" transform="translate(-378.67 4218.611)"/><path class="d" d="M618.291,689.4a5.59,5.59,0,1,1,5.59-5.59A5.59,5.59,0,0,1,618.291,689.4Zm0-10.62a5.031,5.031,0,1,0,5.031,5.031A5.031,5.031,0,0,0,618.291,678.781Z" transform="translate(-355.262 4096.238)"/><rect class="d" width="10.62" height="1.677" rx="0.838" transform="matrix(0.943, 0.333, -0.333, 0.943, 229.568, 4724.946)"/></g><g transform="translate(-11805.441 -68.215)"><g class="e" transform="translate(11895.251 739)"><rect class="i" width="90.597" height="62.461" rx="11"/><rect class="k" x="1.5" y="1.5" width="87.597" height="59.461" rx="9.5"/></g><g class="f" transform="translate(11900.878 743.502)"><path class="i" d="M 77.84292602539062 52.52071380615234 L 1.499996304512024 52.52071380615234 L 1.499996304512024 1.500003218650818 L 77.84292602539062 1.500003218650818 L 77.84292602539062 52.52071380615234 Z"/><path class="j" d="M 3 2.999996185302734 L 3 51.02072143554688 L 76.34292602539062 51.02072143554688 L 76.34292602539062 2.999996185302734 L 3 2.999996185302734 M 0 -3.814697265625e-06 L 79.34292602539062 -3.814697265625e-06 L 79.34292602539062 54.02072143554688 L 0 54.02072143554688 L 0 -3.814697265625e-06 Z"/></g><g class="b" transform="translate(11893 801.461)"><path class="i" d="M 91.72261047363281 5.252696990966797 L 3.375901699066162 5.252696990966797 C 2.341528415679932 5.252696990966797 1.499994993209839 4.410763263702393 1.499994993209839 3.37589693069458 L 1.499994993209839 1.500003457069397 L 3.375901699066162 1.500003457069397 L 91.72261047363281 1.500003457069397 L 93.59941101074219 1.500003457069397 L 93.59941101074219 3.37589693069458 C 93.59941101074219 4.410763263702393 92.75747680664062 5.252696990966797 91.72261047363281 5.252696990966797 Z"/><path class="j" d="M 91.72261047363281 3.752703905105591 C 91.93038177490234 3.752703905105591 92.09941101074219 3.583673238754272 92.09941101074219 3.375904083251953 L 92.09941101074219 2.999996423721313 L 91.72261047363281 2.999996423721313 L 3.375901699066162 2.999996423721313 L 3.000009298324585 2.999996423721313 L 3.000009298324585 3.375904083251953 C 3.000009298324585 3.583673238754272 3.16864013671875 3.752703905105591 3.375901699066162 3.752703905105591 L 91.72261047363281 3.752703905105591 M 91.72261047363281 6.75270414352417 L 3.375901699066162 6.75270414352417 C 1.512009382247925 6.75270414352417 9.382981261296663e-06 5.24070405960083 9.382981261296663e-06 3.375904083251953 L 9.382981261296663e-06 -3.681740281535895e-06 L 3.375901699066162 -3.681740281535895e-06 L 91.72261047363281 -3.681740281535895e-06 L 95.09941101074219 -3.681740281535895e-06 L 95.09941101074219 3.375904083251953 C 95.09941101074219 5.24070405960083 93.58740997314453 6.75270414352417 91.72261047363281 6.75270414352417 Z"/></g><g transform="translate(11918.322 751.943)"><g class="g" transform="translate(0 0)"><rect class="i" width="28.136" height="3.939"/><rect class="k" x="1.5" y="1.5" width="25.136" height="0.939"/></g><g class="g" transform="translate(0 7.315)"><rect class="i" width="45.017" height="3.376"/><rect class="k" x="1.5" y="1.5" width="42.017" height="0.376"/></g><g class="g" transform="translate(0 14.631)"><rect class="i" width="28.136" height="3.376"/><rect class="k" x="1.5" y="1.5" width="25.136" height="0.376"/></g><g class="g" transform="translate(30.949 14.631)"><rect class="i" width="9.566" height="3.376"/><rect class="k" x="1.5" y="1.5" width="6.566" height="0.376"/></g><g class="g" transform="translate(0 20.82)"><rect class="i" width="45.017" height="3.939"/><rect class="k" x="1.5" y="1.5" width="42.017" height="0.939"/></g><g class="g" transform="translate(0 28.136)"><rect class="i" width="10.129" height="3.939"/><rect class="k" x="1.5" y="1.5" width="7.129" height="0.939"/></g><g class="g" transform="translate(12.38 28.136)"><rect class="i" width="28.136" height="3.939"/><rect class="k" x="1.5" y="1.5" width="25.136" height="0.939"/></g></g></g><g transform="translate(-491.008 1484) rotate(-90)"><g class="h" transform="translate(744 687)"><rect class="i" width="73.315" height="40.498" rx="9"/><rect class="k" x="1.5" y="1.5" width="70.315" height="37.498" rx="7.5"/></g><g class="e" transform="translate(755.87 691.888)"><rect class="i" width="50.971" height="30.722"/><rect class="k" x="1.5" y="1.5" width="47.971" height="27.722"/></g><g class="h" transform="translate(748.189 704.628)"><circle class="i" cx="2.621" cy="2.621" r="2.621"/><circle class="k" cx="2.621" cy="2.621" r="1.121"/></g><g class="h" transform="translate(809.634 698.87)"><rect id="a" class="i" width="1.396" height="16.059"/><path class="l" d="M0,1.5h1.396471619606018M1.5,0v16.059423446655273M1.396471619606018,14.559423446655273h-1.396471619606018M-0.10352838039398193,16.059423446655273v-16.059423446655273"/></g></g></g></svg>