<svg id="Facebook_Icon" data-name="Facebook Icon" xmlns="http://www.w3.org/2000/svg" width="80" height="80" viewBox="0 0 80 80">
  <path id="Path_5" data-name="Path 5" d="M80,40.015A40,40,0,1,0,33.751,79.546V51.585H23.592V40.015H33.751V31.2c0-10.028,5.974-15.571,15.109-15.571a61.468,61.468,0,0,1,8.955.782v9.848H52.769c-4.967,0-6.519,3.084-6.519,6.252v7.507H57.342L55.57,51.585H46.249V79.546A40.016,40.016,0,0,0,80,40.015Z" fill="#fff"/>
  <path id="Path_6" data-name="Path 6" d="M4223.98,2810.7l1.661-10.842h-10.4v-7.035c0-2.964,1.451-5.859,6.112-5.859h4.73v-9.229a57.651,57.651,0,0,0-8.4-.733c-8.564,0-14.165,5.189-14.165,14.592v8.264H4194V2810.7h9.524v26.2a37.616,37.616,0,0,0,5.858.454,38.285,38.285,0,0,0,5.859-.454v-26.2Z" transform="translate(-4169.306 -2757.355)" fill="none"/>
</svg>
