<svg xmlns="http://www.w3.org/2000/svg" xmlns:xlink="http://www.w3.org/1999/xlink" width="98" height="98" viewBox="0 0 98 98"><defs><style>.a{fill:#fff;}.b{filter:url(#a);}</style><filter id="a" x="0" y="0" width="98" height="98" filterUnits="userSpaceOnUse"><feOffset dy="3" input="SourceAlpha"/><feGaussianBlur stdDeviation="3" result="b"/><feFlood flood-color="#512783" flood-opacity="0.302"/><feComposite operator="in" in2="b"/><feComposite in="SourceGraphic"/></filter></defs><g class="b" transform="matrix(1, 0, 0, 1, 0, 0)"><path class="a" d="M49.43,21.007c-2.46-.113-3.2-.133-9.43-.133s-6.967.023-9.427.133c-6.33.29-9.277,3.287-9.567,9.567-.11,2.46-.137,3.2-.137,9.427s.027,6.967.137,9.43c.29,6.263,3.223,9.277,9.567,9.567,2.457.11,3.2.137,9.427.137s6.97-.023,9.43-.137C55.76,58.71,58.7,55.7,59,49.43c.11-2.46.133-3.2.133-9.43s-.023-6.967-.133-9.427C58.7,24.3,55.753,21.3,49.43,21.007ZM40,51.983A11.982,11.982,0,1,1,51.983,40,11.983,11.983,0,0,1,40,51.983ZM52.457,30.347a2.8,2.8,0,1,1,2.8-2.8A2.8,2.8,0,0,1,52.457,30.347ZM47.777,40A7.777,7.777,0,1,1,40,32.223,7.777,7.777,0,0,1,47.777,40ZM40,0A40,40,0,1,0,80,40,40,40,0,0,0,40,0ZM63.193,49.62C62.81,58.1,58.087,62.8,49.623,63.193c-2.49.113-3.287.14-9.623.14s-7.13-.027-9.62-.14C21.9,62.8,17.2,58.1,16.807,49.62c-.113-2.487-.14-3.283-.14-9.62s.027-7.13.14-9.62C17.2,21.9,21.9,17.2,30.38,16.81c2.49-.117,3.283-.143,9.62-.143s7.133.027,9.623.143c8.483.39,13.19,5.107,13.57,13.57.113,2.49.14,3.283.14,9.62S63.307,47.133,63.193,49.62Z" transform="translate(9 6)"/></g></svg>