<svg xmlns="http://www.w3.org/2000/svg" xmlns:xlink="http://www.w3.org/1999/xlink" width="332.131" height="84.26" viewBox="0 0 332.131 84.26"><defs><style>.a,.b,.f,.l,.m,.n,.o,.p,.q,.r,.s,.t{fill:none;}.a,.b,.c,.d,.e,.g,.h,.i{stroke-linejoin:round;}.b,.d,.e,.f,.g,.h,.i{stroke:#9371be;stroke-width:3px;}.c,.g,.i{fill:#f5edff;}.d{fill:#d6b4ff;}.e{fill:#fff;}.h{fill:#d6b5ff;}.i{stroke-linecap:round;}.j,.k{stroke:none;}.k{fill:#9371be;}.m{clip-path:url(#b);}.n{clip-path:url(#d);}.o{clip-path:url(#f);}.p{clip-path:url(#h);}.q{clip-path:url(#j);}.r{clip-path:url(#l);}.s{clip-path:url(#n);}.t{clip-path:url(#p);}</style><clipPath id="b"><use xlink:href="#a"/></clipPath><clipPath id="d"><use xlink:href="#c"/></clipPath><clipPath id="f"><use xlink:href="#e"/></clipPath><clipPath id="h"><use xlink:href="#g"/></clipPath><clipPath id="j"><use xlink:href="#i"/></clipPath><clipPath id="l"><use xlink:href="#k"/></clipPath><clipPath id="n"><use xlink:href="#m"/></clipPath><clipPath id="p"><use xlink:href="#o"/></clipPath></defs><g transform="translate(-17.001 -124)"><g transform="translate(-8078.99 -136.631)"><g class="a" transform="translate(8108.456 275.675)"><path class="j" d="M13.43,49.144a5,5,0,0,1-5-5V38.287A21.31,21.31,0,0,1,21.457,0,21.31,21.31,0,0,1,34.485,38.286v5.858a5,5,0,0,1-5,5Z"/><path class="k" d="M 29.48489952087402 46.14360046386719 C 30.58791923522949 46.14360046386719 31.48530006408691 45.24663162231445 31.48530006408691 44.14410018920898 L 31.48530006408691 38.2863883972168 C 31.48530006408691 37.34934997558594 31.92313957214355 36.46612930297852 32.66889953613281 35.89878082275391 C 34.87443923950195 34.22089004516602 36.69961166381836 32.03619003295898 37.94707870483398 29.58086967468262 C 39.25270080566406 27.0111198425293 39.91469955444336 24.23633003234863 39.91469955444336 21.3336009979248 C 39.91469955444336 16.43987083435059 37.99699020385742 11.83812046051025 34.51482009887695 8.376029968261719 C 31.02792930603027 4.909240245819092 26.39053916931152 3.000000238418579 21.45689964294434 3.000000238418579 C 16.5236701965332 3.000000238418579 11.88656997680664 4.90923023223877 8.399799346923828 8.37600040435791 C 4.917679786682129 11.8381404876709 2.999999761581421 16.43989944458008 2.999999761581421 21.3336009979248 C 2.999999761581421 24.23629951477051 3.66202974319458 27.01111030578613 4.967689990997314 29.5809497833252 C 6.215189933776855 32.03631210327148 8.040339469909668 34.22105026245117 10.24584007263184 35.89897155761719 C 10.99158000946045 36.4663200378418 11.42939949035645 37.34952926635742 11.42939949035645 38.28654861450195 L 11.42939949035645 44.14410018920898 C 11.42939949035645 45.24663162231445 12.32677936553955 46.14360046386719 13.42980003356934 46.14360046386719 L 29.48489952087402 46.14360046386719 M 29.48489952087402 49.14360046386719 L 13.42980003356934 49.14360046386719 C 10.66860008239746 49.14360046386719 8.429399490356445 46.90530014038086 8.429399490356445 44.14410018920898 L 8.429399490356445 38.28654861450195 C 3.305119752883911 34.3880500793457 -2.227783255648319e-07 28.24477958679199 -2.227783255648319e-07 21.3336009979248 C -2.227783255648319e-07 9.551700592041016 9.606599807739258 2.319335976608272e-07 21.45689964294434 2.319335976608272e-07 C 33.30810165405273 2.319335976608272e-07 42.91469955444336 9.551700592041016 42.91469955444336 21.3336009979248 C 42.91469955444336 28.24477958679199 39.60976028442383 34.38790130615234 34.48529815673828 38.2863883972168 L 34.48529815673828 44.14410018920898 C 34.48529815673828 46.90530014038086 32.24610137939453 49.14360046386719 29.48489952087402 49.14360046386719 Z"/></g><g class="b" transform="matrix(0.996, -0.087, 0.087, 0.996, 8117.25, 327.969)"><rect class="j" width="25.525" height="3.048" rx="1.524"/><rect class="l" x="1.5" y="1.5" width="22.525" height="0.048" rx="0.024"/></g><g class="b" transform="matrix(0.996, -0.087, 0.087, 0.996, 8119.155, 332.541)"><rect class="j" width="22.858" height="3.048" rx="1.524"/><rect class="l" x="1.5" y="1.5" width="19.858" height="0.048" rx="0.024"/></g><g class="c" transform="translate(8140.988 344.892) rotate(180)"><path class="j" d="M 19.2640266418457 6.806000232696533 L 1.500976085662842 6.806000232696533 C 1.500326633453369 6.780922889709473 1.500001549720764 6.755863666534424 1.500001549720764 6.730790138244629 C 1.500001549720764 5.994040489196777 1.806211590766907 4.559560298919678 3.856981515884399 3.230080366134644 C 5.577911376953125 2.114420413970947 7.895311832427979 1.500000357627869 10.38230133056641 1.500000357627869 C 12.86947154998779 1.500000357627869 15.18700122833252 2.114420413970947 16.90799140930176 3.230090379714966 C 18.95879173278809 4.559560298919678 19.26500129699707 5.994040489196777 19.26500129699707 6.730790138244629 C 19.26500129699707 6.755863189697266 19.26467704772949 6.780923843383789 19.2640266418457 6.806000232696533 Z"/><path class="k" d="M 17.08760833740234 5.306000232696533 C 16.82483673095703 5.022986888885498 16.49021911621094 4.746875286102295 16.092041015625 4.488750457763672 C 14.63258171081543 3.542630434036255 12.5514612197876 3.000000238418579 10.38230133056641 3.000000238418579 C 8.213321685791016 3.000000238418579 6.132341384887695 3.542620420455933 4.6729416847229 4.488730430603027 C 4.274768352508545 4.746858596801758 3.940146207809448 5.022983551025391 3.677377700805664 5.306000232696533 L 17.08760833740234 5.306000232696533 M 20.47905158996582 8.306000709533691 L 0.2859416007995605 8.306000709533691 C 0.09901160001754761 7.800700187683105 1.602172801540291e-06 7.27323055267334 1.602172801540291e-06 6.730790138244629 C 1.602172801540291e-06 3.013540267944336 4.648601531982422 3.54766854115951e-07 10.38230133056641 3.54766854115951e-07 C 16.11640167236328 3.54766854115951e-07 20.76500129699707 3.013540267944336 20.76500129699707 6.730790138244629 C 20.76500129699707 7.27323055267334 20.66598129272461 7.800700187683105 20.47905158996582 8.306000709533691 Z"/></g><path class="b" d="M8172.419,358.988v-19.72s-9.167-12.083-8.969-5.617,8.776,5.617,8.776,5.617,6.788-11.889,7.729-7.334-7.359,7.334-7.359,7.334" transform="translate(-41.758 -34.732)"/><g class="d" transform="translate(8153.918 282.218) rotate(-24)"><rect id="a" class="j" width="10.286" height="1.905" rx="0.952"/><path class="m" d="M0,0.40484321117401123h10.286202430725098M8.786202430725098,0v1.9048432111740112M10.286202430725098,1.5h-10.286202430725098M1.5,1.9048432111740112v-1.9048432111740112"/></g><g class="d" transform="translate(8145.89 262.919) rotate(113)"><rect id="c" class="j" width="10.286" height="1.905" rx="0.952"/><path class="n" d="M0,0.4048386812210083h10.286230087280273M8.786230087280273,0v1.9048386812210083M10.286230087280273,1.5h-10.286230087280273M1.5,1.9048386812210083v-1.9048386812210083"/></g><g class="d" transform="translate(8117.578 260.631) rotate(68)"><rect id="e" class="j" width="10.286" height="1.905" rx="0.952"/><path class="o" d="M0,0.40498292446136475h10.286298751831055M8.786298751831055,0v1.9049829244613647M10.286298751831055,1.5h-10.286298751831055M1.5,1.9049829244613647v-1.9049829244613647"/></g><g class="d" transform="translate(8106.602 285.406) rotate(-157)"><rect id="g" class="j" width="10.286" height="1.905" rx="0.952"/><path class="p" d="M0,0.40487587451934814h10.286214828491211M8.786214828491211,0v1.9048758745193481M10.286214828491211,1.5h-10.286214828491211M1.5,1.9048758745193481v-1.9048758745193481"/></g><g class="d" transform="matrix(0.914, 0.407, -0.407, 0.914, 8154.312, 302.721)"><rect id="i" class="j" width="10.286" height="1.905" rx="0.952"/><path class="q" d="M0,0.40486299991607666h10.2861909866333M8.7861909866333,0v1.9048629999160767M10.2861909866333,1.5h-10.2861909866333M1.5,1.9048629999160767v-1.9048629999160767"/></g><g class="d" transform="matrix(-0.921, 0.391, -0.391, -0.921, 8106.203, 304.55)"><rect id="k" class="j" width="10.286" height="1.905" rx="0.952"/><path class="r" d="M0,0.4048553705215454h10.2861967086792M8.7861967086792,0v1.9048553705215454M10.2861967086792,1.5h-10.2861967086792M1.5,1.9048553705215454v-1.9048553705215454"/></g></g><g transform="translate(-6776.508 592.381)"><path class="b" d="M31.9,55.354A31.87,31.87,0,0,1,0,23.457,31.81,31.81,0,0,1,10.282,0L55.019,45.429A31.806,31.806,0,0,1,31.9,55.354Z" transform="translate(6871 -454.99)"/><g class="e" transform="translate(6874.43 -460)"><circle class="j" cx="28.81" cy="28.81" r="28.81"/><circle class="l" cx="28.81" cy="28.81" r="27.31"/></g><g class="a" transform="translate(6889.566 -459.877)"><path class="j" d="M0,28.749C0,15.2,5.786,3.747,13.735,0,21.684,3.747,27.47,15.2,27.47,28.749s-5.785,25-13.735,28.749C5.786,53.75,0,42.3,0,28.749Z"/><path class="k" d="M 13.73497295379639 54.08273315429688 C 16.50482940673828 52.34975814819336 19.00830459594727 49.35219192504883 20.88458824157715 45.48793411254883 C 22.01842880249023 43.15275192260742 22.90214920043945 40.56149291992188 23.51120948791504 37.7861213684082 C 24.14718818664551 34.88808059692383 24.46965980529785 31.84738159179688 24.46965980529785 28.74851226806641 C 24.46965980529785 25.64964294433594 24.14718818664551 22.60895156860352 23.51120948791504 19.71090316772461 C 22.90214920043945 16.93553161621094 22.01842880249023 14.34427261352539 20.88458824157715 12.00910186767578 C 19.00830459594727 8.144834518432617 16.50482940673828 5.147264957427979 13.73497295379639 3.414291381835938 C 10.96506309509277 5.147273540496826 8.461506843566895 8.144863128662109 6.585178852081299 12.00912189483643 C 5.451308727264404 14.3443021774292 4.567558765411377 16.93556213378906 3.958478927612305 19.71092224121094 C 3.322479009628296 22.60897254943848 2.999999046325684 25.6496524810791 2.999999046325684 28.74851226806641 C 2.999999046325684 31.84737205505371 3.322479009628296 34.8880615234375 3.958478927612305 37.78610229492188 C 4.567558765411377 40.56146240234375 5.451308727264404 43.1527214050293 6.585178852081299 45.4879035949707 C 8.461506843566895 49.3521614074707 10.96506309509277 52.34975051879883 13.73497295379639 54.08273315429688 M 13.73497867584229 57.49702072143555 C 5.785648822784424 53.75032043457031 -1.051025378728809e-06 42.29657363891602 -1.051025378728809e-06 28.74851226806641 C -1.051025378728809e-06 15.20046234130859 5.785648822784424 3.746702194213867 13.73497867584229 2.268066509714117e-06 C 21.68422889709473 3.746702194213867 27.46965980529785 15.20046234130859 27.46965980529785 28.74851226806641 C 27.46965980529785 42.29657363891602 21.68422889709473 53.75032043457031 13.73497867584229 57.49702072143555 Z"/></g><line class="f" x2="45.409" transform="translate(6880.876 -447.947)"/><line class="f" x2="56.061" transform="translate(6875.271 -431.129)"/><line class="f" x2="48.212" transform="translate(6879.195 -416.553)"/><line class="f" x2="7.848" y2="7.848" transform="translate(6875.831 -459.72)"/><line class="f" x2="7.848" y2="7.848" transform="translate(6924.043 -411.508)"/><line class="f" y2="6.167" transform="translate(6903.301 -402.538)"/><g class="c" transform="translate(6882.047 -396.651)"><path class="j" d="M 40.73324584960938 9.151462554931641 L 2.334650039672852 9.151462554931641 C 3.487156629562378 7.348854541778564 5.458605289459229 5.704582691192627 8.071297645568848 4.397742748260498 C 9.894227981567383 3.485942602157593 11.9557580947876 2.77275276184082 14.19863796234131 2.277992725372314 C 16.53891754150391 1.761762738227844 19.00686836242676 1.50000274181366 21.53392791748047 1.50000274181366 C 24.06099700927734 1.50000274181366 26.5289478302002 1.761762738227844 28.86923789978027 2.278002738952637 C 31.11209869384766 2.77275276184082 33.17363739013672 3.485942602157593 34.99656677246094 4.397742748260498 C 37.60931015014648 5.70460844039917 39.58076858520508 7.348866939544678 40.73324584960938 9.151462554931641 Z"/><path class="k" d="M 37.33364868164062 7.651462554931641 C 36.47985458374023 6.957144260406494 35.46791458129883 6.310680389404297 34.32555770874023 5.739282608032227 C 32.61296844482422 4.882682800292969 30.66848754882812 4.210962772369385 28.54611778259277 3.742782592773438 C 26.31175804138184 3.249912738800049 23.95251846313477 3.00000262260437 21.53392791748047 3.00000262260437 C 19.11534881591797 3.00000262260437 16.75610733032227 3.249912738800049 14.52175807952881 3.742782592773438 C 12.39936828613281 4.210962772369385 10.45488834381104 4.882682800292969 8.742318153381348 5.739282608032227 C 7.599887371063232 6.310713291168213 6.588062763214111 6.957086563110352 5.73423433303833 7.651462554931641 L 37.33364868164062 7.651462554931641 M 43.0678596496582 10.65146255493164 L 43.06710815429688 10.65146255493164 L 43.0678596496582 10.65146255493164 Z M 43.0678596496582 10.65146255493164 L -2.08251958611072e-06 10.65146255493164 C 0.8773479461669922 7.701362609863281 3.505677938461304 5.004232883453369 7.400278091430664 3.05620265007019 C 9.333558082580566 2.089202642440796 11.51213836669922 1.334552764892578 13.87551784515381 0.8132126927375793 C 16.32174873352051 0.273602694272995 18.89840698242188 2.70797727353056e-06 21.53392791748047 2.70797727353056e-06 C 24.16945838928223 2.70797727353056e-06 26.74611854553223 0.273602694272995 29.19234848022461 0.8132126927375793 C 31.55571746826172 1.334552764892578 33.73429870605469 2.089202642440796 35.66758728027344 3.05620265007019 C 39.56223678588867 5.004262924194336 42.1902961730957 7.701382637023926 43.06764602661133 10.65074253082275 L 43.0678596496582 10.65146255493164 Z"/></g></g><g transform="translate(-1446.797 -187.619)"><g transform="translate(1689 313.5)"><g class="a" transform="translate(0 39.187)"><path class="j" d="M17.619,35.237h-.005A17.613,17.613,0,0,1,5.16,5.16,17.564,17.564,0,0,1,17.619,0Z"/><path class="k" d="M 14.61871719360352 31.9306697845459 L 14.61871719360352 3.306655168533325 C 13.69953441619873 3.498130321502686 12.80111217498779 3.778825998306274 11.92928791046143 4.147565364837646 C 10.18885803222656 4.883695125579834 8.625177383422852 5.938155174255371 7.281667709350586 7.281665325164795 C 5.938157558441162 8.625175476074219 4.883697509765625 10.18886566162109 4.147567749023438 11.92930507659912 C 3.38609766960144 13.72963523864746 2.999997615814209 15.64383506774902 2.999997615814209 17.61871528625488 C 2.999997615814209 19.59359550476074 3.38609766960144 21.5077953338623 4.147567749023438 23.30814552307129 C 4.883697509765625 25.04857444763184 5.938157558441162 26.61225509643555 7.281667709350586 27.95576477050781 C 8.625177383422852 29.29926490783691 10.18886756896973 30.35373497009277 11.92927742004395 31.08987617492676 C 12.80112075805664 31.45862197875977 13.69943904876709 31.73928833007812 14.61871719360352 31.9306697845459 M 17.61871719360352 35.23743438720703 L 17.61749839782715 35.23743438720703 L 17.61749839782715 35.23682403564453 C 17.61619758605957 35.23682403564453 17.61457824707031 35.23682403564453 17.61327743530273 35.23682403564453 C 15.23697757720947 35.23686599731445 12.93144798278809 34.77104568481445 10.76064777374268 33.8528938293457 C 8.662617683410645 32.96550369262695 6.778407573699951 31.69514465332031 5.160347461700439 30.07708549499512 C 3.542287588119507 28.45902442932129 2.27192759513855 26.57481575012207 1.384547591209412 24.47678565979004 C 0.4658276438713074 22.30465507507324 -2.356872528253007e-06 19.99726486206055 -2.356872528253007e-06 17.61871528625488 C -2.356872528253007e-06 15.24016571044922 0.4658276438713074 12.93277549743652 1.384547591209412 10.76065540313721 C 2.27192759513855 8.662614822387695 3.542287588119507 6.77840518951416 5.160347461700439 5.160345077514648 C 6.778407573699951 3.542285203933716 8.662617683410645 2.271925210952759 10.76064777374268 1.38454532623291 C 12.93277740478516 0.4658352732658386 15.24016761779785 5.286254690872738e-06 17.61871719360352 5.286254690872738e-06 L 17.61871719360352 35.23743438720703 Z"/></g><g class="c" transform="translate(0 39.187)"><path class="j" d="M 16.11871719360352 33.66873931884766 C 14.47082805633545 33.51791381835938 12.87143898010254 33.11701202392578 11.34496784210205 32.47138595581055 C 9.425737380981445 31.65962600708008 7.70178747177124 30.49720573425293 6.221007823944092 29.01642608642578 C 4.740227699279785 27.53564453125 3.577807664871216 25.81169509887695 2.766057729721069 23.89246559143066 C 1.925957679748535 21.90622520446777 1.499997615814209 19.79543495178223 1.499997615814209 17.61871528625488 C 1.499997615814209 15.44199562072754 1.925957679748535 13.33120536804199 2.766057729721069 11.34497547149658 C 3.577807664871216 9.425745010375977 4.740227699279785 7.701785087585449 6.221007823944092 6.221005439758301 C 7.70178747177124 4.740225315093994 9.425737380981445 3.577805280685425 11.34496784210205 2.766055345535278 C 12.87150192260742 2.120400190353394 14.47165966033936 1.719358682632446 16.11871719360352 1.568307518959045 L 16.11871719360352 33.66873931884766 Z"/><path class="k" d="M 14.61871719360352 31.9306697845459 L 14.61871719360352 3.306655168533325 C 13.69953441619873 3.498130321502686 12.80111217498779 3.778825998306274 11.92928791046143 4.147565364837646 C 10.18885803222656 4.883695125579834 8.625177383422852 5.938155174255371 7.281667709350586 7.281665325164795 C 5.938157558441162 8.625175476074219 4.883697509765625 10.18886566162109 4.147567749023438 11.92930507659912 C 3.38609766960144 13.72963523864746 2.999997615814209 15.64383506774902 2.999997615814209 17.61871528625488 C 2.999997615814209 19.59359550476074 3.38609766960144 21.5077953338623 4.147567749023438 23.30814552307129 C 4.883697509765625 25.04857444763184 5.938157558441162 26.61225509643555 7.281667709350586 27.95576477050781 C 8.625177383422852 29.29926490783691 10.18886756896973 30.35373497009277 11.92927742004395 31.08987617492676 C 12.80112075805664 31.45862197875977 13.69943904876709 31.73928833007812 14.61871719360352 31.9306697845459 M 17.61871719360352 35.23743438720703 L 17.61749839782715 35.23743438720703 L 17.61749839782715 35.23682403564453 C 17.61619758605957 35.23682403564453 17.61457824707031 35.23682403564453 17.61327743530273 35.23682403564453 C 15.23697757720947 35.23686599731445 12.93144798278809 34.77104568481445 10.76064777374268 33.8528938293457 C 8.662617683410645 32.96550369262695 6.778407573699951 31.69514465332031 5.160347461700439 30.07708549499512 C 3.542287588119507 28.45902442932129 2.27192759513855 26.57481575012207 1.384547591209412 24.47678565979004 C 0.4658276438713074 22.30465507507324 -2.356872528253007e-06 19.99726486206055 -2.356872528253007e-06 17.61871528625488 C -2.356872528253007e-06 15.24016571044922 0.4658276438713074 12.93277549743652 1.384547591209412 10.76065540313721 C 2.27192759513855 8.662614822387695 3.542287588119507 6.77840518951416 5.160347461700439 5.160345077514648 C 6.778407573699951 3.542285203933716 8.662617683410645 2.271925210952759 10.76064777374268 1.38454532623291 C 12.93277740478516 0.4658352732658386 15.24016761779785 5.286254690872738e-06 17.61871719360352 5.286254690872738e-06 L 17.61871719360352 35.23743438720703 Z"/></g><g class="c" transform="translate(106.928 75.032) rotate(180)"><path class="j" d="M 16.11883926391602 33.66913604736328 C 14.47176742553711 33.51808547973633 12.8715877532959 33.11704254150391 11.34503841400146 32.47138595581055 C 9.425788879394531 31.65961647033691 7.701818466186523 30.4971981048584 6.221038818359375 29.01642799377441 C 4.740238666534424 27.53563690185547 3.577818632125854 25.81168746948242 2.766058683395386 23.89245796203613 C 1.925958633422852 21.90622711181641 1.499998688697815 19.79543685913086 1.499998688697815 17.61871719360352 C 1.499998688697815 15.44199752807617 1.925958633422852 13.33120727539062 2.766058683395386 11.34496688842773 C 3.577818632125854 9.425746917724609 4.740238666534424 7.701797008514404 6.221038818359375 6.221007347106934 C 7.701818466186523 4.740237236022949 9.425788879394531 3.57781720161438 11.34504890441895 2.766047239303589 C 12.8720121383667 2.120215177536011 14.47231769561768 1.719230890274048 16.11883926391602 1.568517446517944 L 16.11883926391602 33.66913604736328 Z"/><path class="k" d="M 14.61883926391602 3.30665397644043 C 13.69983959197998 3.498037338256836 12.80138778686523 3.778732299804688 11.92936897277832 4.147556304931641 C 10.18890857696533 4.883697509765625 8.625208854675293 5.938167572021484 7.281688690185547 7.28167724609375 C 5.938179016113281 8.625167846679688 4.883708953857422 10.18885803222656 4.147568702697754 11.92928695678711 C 3.386098861694336 13.72963714599609 2.999999046325684 15.64383697509766 2.999999046325684 17.61871719360352 C 2.999999046325684 19.59359741210938 3.386098861694336 21.50779724121094 4.147558212280273 23.30813598632812 C 4.883698463439941 25.0485668182373 5.938179016113281 26.61224746704102 7.281688690185547 27.95575714111328 C 8.625208854675293 29.29926681518555 10.18890857696533 30.35373687744141 11.92934799194336 31.08986663818359 C 12.80119323730469 31.45861053466797 13.69964599609375 31.73931312561035 14.61883926391602 31.93078994750977 L 14.61883926391602 3.30665397644043 M 17.61761856079102 -3.814697265625e-06 L 17.61883926391602 -3.814697265625e-06 L 17.61883926391602 35.2374382019043 C 15.24026870727539 35.2374382019043 12.93286895751953 34.77159881591797 10.76072883605957 33.85289764404297 C 8.662678718566895 32.96550750732422 6.778449058532715 31.69514656066895 5.160378456115723 30.07708740234375 C 3.542308807373047 28.45902633666992 2.271938323974609 26.5748176574707 1.384548187255859 24.47678756713867 C 0.4658279418945312 22.30465698242188 -1.9073486328125e-06 19.99726676940918 -1.9073486328125e-06 17.61871719360352 C -1.9073486328125e-06 15.24016761779785 0.4658279418945312 12.93277740478516 1.384548187255859 10.76064682006836 C 2.271938323974609 8.662616729736328 3.542308807373047 6.778396606445312 5.160378456115723 5.160346984863281 C 6.778449058532715 3.542287826538086 8.662678718566895 2.271926879882812 10.76072883605957 1.384536743164062 C 12.93153858184814 0.4663887023925781 15.23708915710449 0.000568389892578125 17.61338806152344 0.000606536865234375 C 17.61469841003418 0.000606536865234375 17.61631774902344 0.000606536865234375 17.61761856079102 0.000606536865234375 L 17.61761856079102 -3.814697265625e-06 Z"/></g><g class="g" transform="translate(16.404 33.111)"><rect class="j" width="13.366" height="47.389" rx="6.683"/><rect class="l" x="1.5" y="1.5" width="10.366" height="44.389" rx="5.183"/></g><g class="g" transform="translate(77.158 33.111)"><rect class="j" width="13.366" height="47.389" rx="6.683"/><rect class="l" x="1.5" y="1.5" width="10.366" height="44.389" rx="5.183"/></g><path class="f" d="M7978.61-542.484a30.162,30.162,0,0,0-2.694,13.156" transform="translate(-7952.273 563.15)"/><path class="f" d="M7975.917-542.484a30.166,30.166,0,0,1,2.695,13.156" transform="translate(-7893.949 563.15)"/><path class="h" d="M4.407,22.472h0L0,19.553c.531-1.055,1.114-2.091,1.732-3.079a37.137,37.137,0,0,1,4.225-5.53,35.552,35.552,0,0,1,5.121-4.562,33.9,33.9,0,0,1,5.877-3.445,32.362,32.362,0,0,1,26.937,0A33.9,33.9,0,0,1,49.77,6.381a35.553,35.553,0,0,1,5.121,4.562,37.137,37.137,0,0,1,4.225,5.53c.63,1.007,1.223,2.062,1.76,3.135l-4.253,2.12a32.112,32.112,0,0,0-4.833-6.83A29.716,29.716,0,0,0,42.313,8,27.885,27.885,0,0,0,19.1,8,29.716,29.716,0,0,0,9.62,14.9a32.157,32.157,0,0,0-5.213,7.573Z" transform="translate(23.648 0)"/></g><g transform="translate(1728.49 354.509)"><g class="h" transform="translate(7.898 0)"><rect class="j" width="18.834" height="3.645"/><rect class="l" x="1.5" y="1.5" width="15.834" height="0.645"/></g><g class="h" transform="translate(7.898 3.645)"><rect id="m" class="j" width="1.823" height="19.441"/><path class="s" d="M0,1.5h1.8226382732391357M1.5,0v19.44147491455078M1.8226382732391357,17.94147491455078h-1.8226382732391357M0.32263827323913574,19.44147491455078v-19.44147491455078"/></g><g class="h" transform="translate(24.909 3.645)"><rect id="o" class="j" width="1.823" height="24.909"/><path class="t" d="M0,1.5h1.8226382732391357M1.5,0v24.90938949584961M1.8226382732391357,23.40938949584961h-1.8226382732391357M0.32263827323913574,24.90938949584961v-24.90938949584961"/></g><g class="h" transform="translate(17.011 23.694)"><circle class="j" cx="4.86" cy="4.86" r="4.86"/><circle class="l" cx="4.86" cy="4.86" r="3.36"/></g><g class="h" transform="translate(0 18.226)"><ellipse class="j" cx="4.86" cy="4.557" rx="4.86" ry="4.557"/><ellipse class="l" cx="4.86" cy="4.557" rx="3.36" ry="3.057"/></g></g></g><g transform="translate(-518.561 -187.836)"><g class="a" transform="matrix(0.799, 0.602, -0.602, 0.799, 719.378, 326.172)"><path class="j" d="M.174,43.332H0V18.026H.019A18.7,18.7,0,0,1,18.532,0,18.7,18.7,0,0,1,37.045,18.026h.019V43.332H36.89A18.658,18.658,0,0,1,18.532,59.625,18.658,18.658,0,0,1,.174,43.332Z"/><path class="k" d="M 18.53215408325195 56.62466430664062 C 22.2967414855957 56.62466430664062 25.92800903320312 55.22911071777344 28.75700950622559 52.69507598876953 C 31.57509803771973 50.17083358764648 33.40758514404297 46.70305252075195 33.91691970825195 42.9305534362793 C 33.94533538818359 42.7200927734375 33.99517822265625 42.51707077026367 34.06399917602539 42.32379531860352 L 34.06399917602539 40.73212051391602 L 34.06399917602539 18.89285469055176 L 34.06399917602539 18.36578559875488 C 34.05627059936523 18.29745483398438 34.05083847045898 18.22854423522949 34.04775238037109 18.15885353088379 C 33.86627578735352 14.06035423278809 32.16471862792969 10.23834323883057 29.25653076171875 7.396876811981201 C 26.35458564758301 4.56151008605957 22.54593086242676 2.999998807907104 18.53215408325195 2.999998807907104 C 14.51824188232422 2.999998807907104 10.70948696136475 4.56151008605957 7.807497501373291 7.39688777923584 C 4.89928674697876 10.23833179473877 3.19770884513855 14.06034278869629 3.016231060028076 18.15885353088379 C 3.013149499893188 18.22844696044922 3.007707595825195 18.29745101928711 2.999997615814209 18.36568832397461 L 2.999997615814209 42.32379531860352 C 3.068817853927612 42.51707077026367 3.118661403656006 42.7200927734375 3.147075414657593 42.9305534362793 C 3.656408786773682 46.70306396484375 5.488908767700195 50.17083358764648 8.30702018737793 52.69506454467773 C 11.13606452941895 55.22911071777344 14.76741981506348 56.62466430664062 18.53215408325195 56.62466430664062 M 18.53215408325195 59.62466430664062 C 9.162375450134277 59.62466430664062 1.416653275489807 52.53566360473633 0.1740532368421555 43.33194351196289 L -2.319335862921434e-06 43.33194351196289 L -2.319335862921434e-06 18.02614402770996 L 0.01916434802114964 18.02614402770996 C 0.4633865654468536 7.994154453277588 8.58203125 9.931098247761838e-06 18.53215408325195 -1.180012986878864e-06 C 28.48197555541992 9.931098247761838e-06 36.60060882568359 7.994154453277588 37.04481887817383 18.02614402770996 L 37.06399917602539 18.02614402770996 L 37.06399917602539 18.89285469055176 L 37.06399917602539 40.73212051391602 L 37.06399917602539 43.33194351196289 L 36.88994216918945 43.33194351196289 C 35.64734268188477 52.53566360473633 27.90164184570312 59.62466430664062 18.53215408325195 59.62466430664062 Z"/></g><path class="i" d="M1.935,20.093a1.57,1.57,0,0,1-1.229-.748,4.1,4.1,0,0,1-.686-2.02L0,17.1V12.558l0-.077a4.321,4.321,0,0,1,.639-2.234,1.618,1.618,0,0,1,1.294-.842v0a1.617,1.617,0,0,1,1.294.842,4.321,4.321,0,0,1,.639,2.234l0,.077V17.1l-.02.229a4.1,4.1,0,0,1-.686,2.02,1.571,1.571,0,0,1-1.23.748v0Z" transform="matrix(0.799, 0.602, -0.602, 0.799, 732.89, 336.354)"/><path class="b" d="M1.792,14.934S-5.545-1.819,9.473,4.013,24.362,0,24.362,0" transform="translate(737.345 322.097) rotate(16)"/></g></g></svg>