<svg id="Twitter_Icon" data-name="Twitter Icon" xmlns="http://www.w3.org/2000/svg" width="80" height="80" viewBox="0 0 80 80">
  <path id="Subtraction_1" data-name="Subtraction 1" d="M40,80A40.011,40.011,0,0,1,24.43,3.143,40.01,40.01,0,0,1,55.569,76.857,39.751,39.751,0,0,1,40,80ZM17.973,56.843h0a26.9,26.9,0,0,0,14.766,4.367,27.834,27.834,0,0,0,11.793-2.5,26.01,26.01,0,0,0,8.617-6.458A28.361,28.361,0,0,0,58.433,43.4a27.939,27.939,0,0,0,1.8-9.68c0-.414,0-.842-.02-1.242a19.68,19.68,0,0,0,4.829-5.009,19.608,19.608,0,0,1-5.551,1.523,9.662,9.662,0,0,0,4.248-5.349A19.562,19.562,0,0,1,57.6,25.987a9.556,9.556,0,0,0-7.052-3.046A9.669,9.669,0,0,0,40.893,32.6a8.873,8.873,0,0,0,.261,2.2A27.181,27.181,0,0,1,29.971,31.8,27.43,27.43,0,0,1,21.238,24.7a9.71,9.71,0,0,0-1.3,4.849,9.6,9.6,0,0,0,4.308,8.034,9.432,9.432,0,0,1-4.368-1.2v.12a9.671,9.671,0,0,0,7.754,9.477,9.623,9.623,0,0,1-2.545.341,9.2,9.2,0,0,1-1.823-.18,9.638,9.638,0,0,0,9.016,6.711,19.419,19.419,0,0,1-12,4.128A17.592,17.592,0,0,1,17.973,56.843Z" transform="translate(0 0)" fill="#fff"/>
</svg>
