<svg xmlns="http://www.w3.org/2000/svg" width="292.607" height="247.299" viewBox="0 0 292.607 247.299"><defs><style>.a{fill:#fff;}.b{fill:#3f3d56;}.c{fill:#e6e6e6;}.d{fill:#f2f2f2;}.e{fill:#6c63ff;}.f{opacity:0.2;}.g{fill:#ffb8b8;}.h{fill:#2f2e41;}</style></defs><g transform="translate(0.001)"><path class="a" d="M569.441,573.086h-132.5a3.1,3.1,0,0,1-3.1-3.1V479.51a3.1,3.1,0,0,1,3.1-3.1h132.5a3.1,3.1,0,0,1,3.1,3.1v90.478A3.1,3.1,0,0,1,569.441,573.086Z" transform="translate(-344.74 -343.67)"/><path class="b" d="M569.441,573.086h-132.5a3.1,3.1,0,0,1-3.1-3.1V479.51a3.1,3.1,0,0,1,3.1-3.1h132.5a3.1,3.1,0,0,1,3.1,3.1v90.478A3.1,3.1,0,0,1,569.441,573.086ZM436.939,477.1a2.412,2.412,0,0,0-2.41,2.41v90.478a2.413,2.413,0,0,0,2.41,2.41h132.5a2.413,2.413,0,0,0,2.41-2.41V479.51a2.413,2.413,0,0,0-2.41-2.41Z" transform="translate(-344.74 -343.67)"/><path class="c" d="M621.41,650.263H590.734V599.478a4.548,4.548,0,0,1,4.543-4.543h21.59a4.548,4.548,0,0,1,4.543,4.543Z" transform="translate(-447.621 -421.391)"/><path class="a" d="M773.374,358.72H755.855V329.443a3.1,3.1,0,0,1,3.1-3.1h11.322a3.1,3.1,0,0,1,3.1,3.1Z" transform="translate(-555.899 -245.264)"/><path class="b" d="M773.374,358.72H755.855V329.443a3.1,3.1,0,0,1,3.1-3.1h11.322a3.1,3.1,0,0,1,3.1,3.1Zm-16.83-.689h16.141V329.443a2.412,2.412,0,0,0-2.41-2.41H758.954a2.412,2.412,0,0,0-2.41,2.41Z" transform="translate(-555.899 -245.264)"/><circle class="d" cx="33.734" cy="33.734" r="33.734" transform="translate(84.971 58.315)"/><path class="c" d="M756.7,166.769a5.951,5.951,0,0,1-.085-11.894c6.761-.309,12.3-7.565,10.809-14.167s-9.6-10.783-15.841-8.162c-4.787,2.01-9.624-4.324-8.411-9.372s5.8-8.438,10.052-11.423,8.792-6.49,9.818-11.58-4.224-11.186-8.848-8.827" transform="translate(-547.456 -90.821)"/><path class="c" d="M496.313,582.243H470.4a3.9,3.9,0,0,1-3.9-3.9V556.982a3.9,3.9,0,0,1,3.9-3.9h25.912a3.9,3.9,0,0,1,3.9,3.9v21.363a3.9,3.9,0,0,1-3.9,3.9Z" transform="translate(-366.157 -393.947)"/><path class="c" d="M737.707,582.243H711.794a3.9,3.9,0,0,1-3.9-3.9V556.982a3.9,3.9,0,0,1,3.9-3.9h25.912a3.9,3.9,0,0,1,3.9,3.9v21.363A3.9,3.9,0,0,1,737.707,582.243Z" transform="translate(-524.45 -393.947)"/><path class="e" d="M405.1,359.539V345.618a6.066,6.066,0,0,1,3.056-5.267l77.346-44.207a6.066,6.066,0,0,1,6.272.152l69.005,44.013a6.066,6.066,0,0,1,2.8,5.115v14.115a6.066,6.066,0,0,1-6.066,6.066H411.171A6.066,6.066,0,0,1,405.1,359.539Z" transform="translate(-325.896 -224.936)"/><path class="f" d="M557.522,469.88H411.171a6.066,6.066,0,0,1-6.066-6.066v5.508a6.066,6.066,0,0,0,6.066,6.066H557.522a6.066,6.066,0,0,0,6.066-6.066v-5.508a6.067,6.067,0,0,1-6.066,6.066Z" transform="translate(-325.896 -335.409)"/><path class="d" d="M882.367,551.224c0-10.675,8.654-36.007,19.329-36.007s19.329,25.332,19.329,36.007a19.329,19.329,0,1,1-38.658,0Z" transform="translate(-638.858 -369.117)"/><path class="b" d="M937.858,622.523a.344.344,0,0,1-.344-.344V552.773a.344.344,0,0,1,.689,0v69.406a.344.344,0,0,1-.344.344Z" transform="translate(-675.021 -393.518)"/><path class="b" d="M937.858,621.882a.344.344,0,0,1-.249-.582l9.826-10.311a.344.344,0,1,1,.5.475l-9.826,10.311A.343.343,0,0,1,937.858,621.882Z" transform="translate(-675.021 -431.849)"/><path class="b" d="M921.684,576.237a.342.342,0,0,1-.232-.09l-8.491-7.764a.344.344,0,1,1,.465-.508l8.491,7.763a.344.344,0,0,1-.232.6Z" transform="translate(-658.846 -403.587)"/><path class="e" d="M197.045,457.219c0-15.7,12.73-52.968,28.434-52.968s28.434,37.264,28.434,52.968a28.434,28.434,0,1,1-56.868,0Z" transform="translate(-189.462 -296.351)"/><path class="b" d="M278.984,562.249a.344.344,0,0,1-.344-.344v-102.1a.344.344,0,0,1,.689,0V561.9A.344.344,0,0,1,278.984,562.249Z" transform="translate(-242.968 -332.555)"/><path class="b" d="M278.984,561.306a.344.344,0,0,1-.249-.582l14.454-15.168a.344.344,0,0,1,.5.475L279.233,561.2A.343.343,0,0,1,278.984,561.306Z" transform="translate(-242.968 -388.941)"/><path class="b" d="M255.19,494.16a.343.343,0,0,1-.232-.09l-12.491-11.421a.344.344,0,1,1,.465-.508l12.491,11.421a.344.344,0,0,1-.232.6Z" transform="translate(-219.174 -347.368)"/><path class="c" d="M895.8,733.73c.033.025.067.048.1.073h27.991a10.14,10.14,0,0,0-.077-6.379c-1.167-2.753-4.622-4.471-7.368-3.289a4.194,4.194,0,0,0-1.647,1.3,6.167,6.167,0,0,0-5.221-3.368c-2.784,0-5.1,2.279-5.855,4.909-1.216-2.053-3.619-3.488-5.968-2.871C893.829,725.14,892.588,731.246,895.8,733.73Z" transform="translate(-646.466 -504.759)"/><path class="c" d="M193.712,712.889c.066.051.135.1.2.146H250.42c1.107-4.486,1.5-8.977-.156-12.877-2.357-5.557-9.33-9.026-14.875-6.64a8.466,8.466,0,0,0-3.325,2.631c-2.167-3.879-6.053-6.8-10.54-6.8-5.621,0-10.294,4.6-11.819,9.91-2.456-4.145-7.306-7.042-12.048-5.8C189.729,695.548,187.224,707.875,193.712,712.889Z" transform="translate(-184.851 -483.303)"/><rect class="b" width="292.605" height="0.689" transform="translate(-0.001 229.284) rotate(-0.108)"/><path class="g" d="M432.581,683.943a1.922,1.922,0,0,0-1.718-2.394l-10.933-13.668-2.705,2.521,11.549,13.056a1.932,1.932,0,0,0,3.807.485Z" transform="translate(-333.845 -469.224)"/><path class="b" d="M417.221,664.175l-3.455,2.646a.862.862,0,0,1-1.277-.266l-2.1-3.794a2.393,2.393,0,1,1,3.808-2.9l3.1,3.01a.862.862,0,0,1-.076,1.3Z" transform="translate(-329.037 -463.348)"/><circle class="g" cx="4.394" cy="4.394" r="4.394" transform="translate(77.988 183.789)"/><path class="g" d="M264.161,704.364h2.193l-.209-4.1h-3.237Z" transform="translate(-172.402 -459.191)"/><path class="h" d="M439.939,800.923h4.319a2.752,2.752,0,0,1,2.752,2.752v.089h-7.071Z" transform="translate(-348.739 -556.466)"/><path class="g" d="M198.626,695.807l1.866,1.153,1.979-3.6-2.258-1.412Z" transform="translate(-130.249 -453.739)"/><path class="h" d="M370.508,791.361l3.674,2.27h0a2.752,2.752,0,0,1,.9,3.788l-.047.076-6.016-3.716Z" transform="translate(-302.231 -550.196)"/><path class="h" d="M397.255,732.746a.8.8,0,0,1-.751-.519l-7.933-18.966a.268.268,0,0,0-.474-.058l-10.9,17.168a.8.8,0,0,1-1.009.281l-1.491-.7a.808.808,0,0,1-.394-1.059l8.928-19.9c-.195-.474-2.1-5.344.825-7.75l.02-.013L392,697.7l.2,6.078,7.9,27.4a.8.8,0,0,1-.569,1l-2.068.544a.811.811,0,0,1-.206.027Z" transform="translate(-305.654 -488.777)"/><path class="b" d="M407.957,660.6a7.021,7.021,0,0,0-1.3-2.995,7.247,7.247,0,0,1-.593-.653,4.341,4.341,0,0,0-1.422-1.165c.2-.112.32-.246.32-.391,0-.4-.881-.716-1.968-.716s-1.968.32-1.968.716a.349.349,0,0,0,.117.241,4.187,4.187,0,0,0-2.589,3.491c-.254,2.722-.328,6.2.562,8.4a8.1,8.1,0,0,1,.167,5.71.715.715,0,0,0,.946.889l7.861-3.168a.715.715,0,0,0,.448-.664v-4.811A20.206,20.206,0,0,0,407.957,660.6Z" transform="translate(-321.489 -460.568)"/><path class="g" d="M377.963,692a1.922,1.922,0,0,0,1.332-2.629l6.151-16.22-3.119-.805L376.637,688.4a1.932,1.932,0,0,0,1.326,3.6Z" transform="translate(-306.537 -472.152)"/><path class="b" d="M395.708,668.213l-3.941-1.845a.862.862,0,0,1-.353-1.256l2.4-3.617a2.393,2.393,0,1,1,4.329,2.042L396.9,667.68a.862.862,0,0,1-1.191.533Z" transform="translate(-316.824 -464.137)"/><path class="h" d="M400.5,624.286a1,1,0,0,0,.576-.1c.324-.212.292-.694.183-1.066a5.546,5.546,0,0,0-3.82-3.717,1.609,1.609,0,0,0-1.775.379,4.518,4.518,0,0,0-5.845.718,6.122,6.122,0,0,0-1.372,2.924c-.375,1.839-1.983,5.633-1.093,7.286.593,1.1,3.32.243,4.474.722a3.81,3.81,0,0,0,3.581-.289,2.922,2.922,0,0,0,1.124-3.294,10.2,10.2,0,0,0-.7-1.268,2.041,2.041,0,0,1-.3-1.385C395.693,624.457,399.161,624.258,400.5,624.286Z" transform="translate(-314.082 -437.185)"/></g></svg>